<?xml version="1.0" standalone="no"?>
<!DOCTYPE svg PUBLIC "-//W3C//DTD SVG 1.1//EN" "http://www.w3.org/Graphics/SVG/1.1/DTD/svg11.dtd" >
<svg>
<metadata>
Created by FontForge 20090914 at Thu Feb 23 16:59:41 2012
 By ffonts
Copyright (c) Dubina Nikolay | D-Studio (Moscow) - www.d-s.ru, 2000. All rights reserved.
</metadata>
<defs>
<font id="DSCrystal" horiz-adv-x="453" >
  <font-face 
    font-family="DS Crystal"
    font-weight="400"
    font-stretch="normal"
    units-per-em="1000"
    panose-1="4 0 0 0 0 0 0 3 0 0"
    ascent="800"
    descent="-200"
    x-height="712"
    cap-height="712"
    bbox="20 -164 919 919"
    underline-thickness="40"
    underline-position="-140"
    unicode-range="U+0020-U+203A"
  />
<missing-glyph horiz-adv-x="500" 
 />
    <glyph glyph-name=".notdef" horiz-adv-x="500" 
 />
    <glyph glyph-name=".null" horiz-adv-x="0" 
 />
    <glyph glyph-name="nonmarkingreturn" horiz-adv-x="500" 
 />
    <glyph glyph-name="space" unicode=" " horiz-adv-x="449" 
 />
    <glyph glyph-name="space" unicode="&#xa0;" horiz-adv-x="449" 
 />
    <glyph glyph-name="dollar" unicode="$" 
d="M433 712h-300l-49 -49l64 -65h156zM369 49l-65 65h-156l-128 -114h298zM404 356l-100 64h-156l-100 -64l100 -49h156zM433 114v235l-115 -57v-163l65 -65zM133 434v149l-64 65l-49 -50v-235zM271 -99v69h-113v-84l49 -50zM271 742v43l-64 65l-49 -50v-58h113z" />
    <glyph glyph-name="ampersand" unicode="&#x26;" horiz-adv-x="595" 
d="M369 663l-51 49h-185l-49 -49l64 -65h156zM369 49l-65 65h-156l-64 -65l49 -49h185zM133 129v163l-113 57v-235l49 -50zM430 115v177l-55 57l-57 -56v-164l65 -63zM133 434v149l-64 65l-49 -50v-235zM360 363l-55 57h-87l-99 -62l98 -51h88zM431 437v75l-48 66l-65 -66
v-74l57 -62zM575 357l-92 63h-37l-56 -57l56 -56h36z" />
    <glyph glyph-name="quotesingle" unicode="'" horiz-adv-x="153" 
d="M133 467v245l-113 -57v-153z" />
    <glyph glyph-name="parenleft" unicode="(" horiz-adv-x="282" 
d="M134 420v283l-64 65l-50 -50v-355zM134 9v269l-114 71v-355l50 -50zM262 -120l-71 114h-43l-64 -65l50 -49h128zM262 832h-128l-50 -49l64 -65h43z" />
    <glyph glyph-name="parenright" unicode=")" horiz-adv-x="282" 
d="M262 363v355l-50 50l-64 -65v-283zM262 -6v355l-114 -71v-269l64 -65zM198 -71l-64 65h-43l-71 -114h128zM198 783l-50 49h-128l71 -114h43z" />
    <glyph glyph-name="asterisk" unicode="*" horiz-adv-x="444" 
d="M424 423l-10 68l-131 72l-52 -32v-68l138 -75zM279 585v138l-57 44l-59 -41v-137l57 -44zM208 464v65l-51 36l-130 -76l-7 -71l66 -28z" />
    <glyph glyph-name="plus" unicode="+" horiz-adv-x="607" 
d="M587 226v120h-223v222h-120v-222h-224v-120h224v-226h120v226h223z" />
    <glyph glyph-name="comma" unicode="," horiz-adv-x="153" 
d="M133 -114v292h-113v-292h113z" />
    <glyph glyph-name="hyphen" unicode="-" horiz-adv-x="321" 
d="M301 284v70h-281v-70h281z" />
    <glyph glyph-name="period" unicode="." horiz-adv-x="153" 
d="M133 0v178h-113v-178h113z" />
    <glyph glyph-name="zero" unicode="0" 
d="M433 114v235l-115 -57v-163l65 -65zM369 663l-51 49h-185l-49 -49l64 -65h156zM369 49l-65 65h-156l-64 -65l49 -49h185zM133 129v163l-113 57v-235l49 -50zM433 363v235l-50 50l-65 -65v-149zM133 434v149l-64 65l-49 -50v-235z" />
    <glyph glyph-name="one" unicode="1" horiz-adv-x="353" 
d="M333 14v335l-114 -57v-163zM333 363v335l-114 -115v-149zM318 712h-298l113 -114h72z" />
    <glyph glyph-name="two" unicode="2" 
d="M433 0l-129 114h-156l-100 -114h385zM369 663l-51 49h-185l-106 -114h277zM133 129v163l-113 57v-349zM404 356l-100 64h-156l-100 -64l100 -49h156zM433 363v235l-50 50l-65 -65v-149z" />
    <glyph glyph-name="three" unicode="3" 
d="M369 663l-51 49h-298l128 -114h157zM369 49l-64 65h-157l-128 -114h298zM405 356l-100 64h-157l-99 -64l99 -49h157zM433 114v235l-115 -57v-163l65 -65zM433 363v235l-50 50l-65 -65v-149z" />
    <glyph glyph-name="four" unicode="4" 
d="M433 0v349l-115 -57v-178zM433 363v349l-115 -114v-164zM133 434v164l-113 114v-349zM404 356l-100 64h-156l-100 -64l100 -49h156z" />
    <glyph glyph-name="five" unicode="5" horiz-adv-x="460" 
d="M440 712h-394l109 -114h156zM376 49l-65 65h-156l-135 -114h306zM411 356l-100 64h-156l-100 -64l100 -49h156zM140 434v149l-113 121v-341zM440 114v235l-114 -57v-163l64 -65z" />
    <glyph glyph-name="six" unicode="6" 
d="M433 712h-300l-49 -49l64 -65h156zM404 356l-100 64h-156l-100 -64l100 -49h156zM433 114v235l-115 -57v-163l65 -65zM369 49l-65 65h-156l-64 -65l49 -49h185zM133 129v163l-113 57v-235l49 -50zM133 434v149l-64 65l-49 -50v-235z" />
    <glyph glyph-name="seven" unicode="7" horiz-adv-x="439" 
d="M405 712h-385l114 -114h157zM419 0v349l-114 -57v-178zM419 363v335l-114 -115v-149z" />
    <glyph glyph-name="eight" unicode="8" 
d="M404 356l-100 64h-156l-100 -64l100 -49h156zM433 114v235l-115 -57v-163l65 -65zM369 663l-51 49h-185l-49 -49l64 -65h156zM369 49l-65 65h-156l-64 -65l49 -49h185zM133 129v163l-113 57v-235l49 -50zM433 363v235l-50 50l-65 -65v-149zM133 434v149l-64 65l-49 -50
v-235z" />
    <glyph glyph-name="nine" unicode="9" 
d="M369 49l-65 65h-156l-128 -114h298zM404 356l-100 49h-156l-100 -49l100 -64h156zM433 363v235l-50 50l-65 -65v-163zM369 663l-51 49h-185l-49 -49l64 -65h156zM133 420v163l-64 65l-49 -50v-235zM433 114v235l-115 -71v-149l65 -65z" />
    <glyph glyph-name="colon" unicode=":" horiz-adv-x="153" 
d="M133 320v178h-113v-178h113zM133 0v178h-113v-178h113z" />
    <glyph glyph-name="semicolon" unicode=";" horiz-adv-x="153" 
d="M133 -114v292h-113v-292h113zM133 320v178h-113v-178h113z" />
    <glyph glyph-name="less" unicode="&#x3c;" horiz-adv-x="582" 
d="M562 -33v119l-385 188l385 188v119l-542 -261v-93z" />
    <glyph glyph-name="equal" unicode="=" horiz-adv-x="607" 
d="M587 317v119h-567v-119h567zM587 132v119h-567v-119h567z" />
    <glyph glyph-name="greater" unicode="&#x3e;" horiz-adv-x="582" 
d="M562 227v93l-542 261v-119l386 -188l-386 -188v-119z" />
    <glyph glyph-name="question" unicode="?" horiz-adv-x="425" 
d="M340 663l-49 49h-271l100 -114h156zM405 363v235l-51 50l-63 -65v-149zM376 356l-100 64h-156v-113h156zM234 0v178h-114v-178h114z" />
    <glyph glyph-name="A" unicode="A" 
d="M418 712h-384l114 -114h156zM433 0v349l-115 -57v-178zM133 114v178l-113 57v-349zM404 356l-100 64h-156l-100 -64l100 -49h156zM433 363v335l-115 -115v-149zM133 434v149l-113 115v-335z" />
    <glyph glyph-name="B" unicode="B" 
d="M404 356l-100 64h-156l-100 -64l100 -49h156zM369 663l-51 49h-284l114 -114h156zM369 49l-65 65h-156l-114 -114h284zM133 129v163l-113 57v-335zM133 434v149l-113 115v-335zM433 114v235l-115 -57v-163l65 -65zM433 363v235l-50 50l-65 -65v-149z" />
    <glyph glyph-name="C" unicode="C" horiz-adv-x="438" 
d="M418 712h-285l-49 -49l64 -65h156zM418 0l-114 114h-156l-64 -65l49 -49h285zM133 420v163l-64 65l-49 -50v-235zM133 129v149l-113 71v-235l49 -50z" />
    <glyph glyph-name="D" unicode="D" 
d="M369 663l-51 49h-284l114 -114h156zM369 49l-65 65h-156l-114 -114h284zM133 129v163l-113 57v-335zM133 434v149l-113 115v-335zM433 114v235l-115 -57v-163l65 -65zM433 363v235l-50 50l-65 -65v-149z" />
    <glyph glyph-name="E" unicode="E" horiz-adv-x="438" 
d="M418 712h-384l114 -114h156zM418 0l-114 114h-156l-114 -114h384zM404 356l-100 64h-156l-100 -64l100 -49h156zM133 129v163l-113 57v-335zM133 434v149l-113 115v-335z" />
    <glyph glyph-name="F" unicode="F" horiz-adv-x="438" 
d="M418 712h-384l114 -114h156zM133 114v178l-113 57v-349zM404 356l-100 64h-156l-100 -64l100 -49h156zM133 434v149l-113 115v-335z" />
    <glyph glyph-name="G" unicode="G" 
d="M433 114v235l-115 -57v-163l65 -65zM369 663l-51 49h-185l-49 -49l64 -65h156zM369 49l-65 65h-156l-64 -65l49 -49h185zM133 129v163l-113 57v-235l49 -50zM133 434v149l-64 65l-49 -50v-235zM404 356l-100 64h-71l-100 -64l100 -49h71z" />
    <glyph glyph-name="H" unicode="H" 
d="M433 0v349l-115 -57v-178zM133 114v178l-113 57v-349zM433 363v349l-115 -114v-164zM133 434v164l-113 114v-349zM404 356l-100 64h-156l-100 -64l100 -49h156z" />
    <glyph glyph-name="I" unicode="I" horiz-adv-x="153" 
d="M133 0v349l-113 -57v-178zM133 363v349l-113 -114v-164z" />
    <glyph glyph-name="J" unicode="J" 
d="M418 0l-114 114h-156l-114 -114h384zM433 363v349l-115 -114v-164zM433 14v335l-115 -57v-163zM133 129v163l-113 57v-335z" />
    <glyph glyph-name="K" unicode="K" 
d="M433 635v77h-82l-164 -271h130zM433 0v349l-115 -57v-178zM133 114v178l-113 57v-349zM133 434v164l-113 114v-349zM404 356l-100 64h-156l-100 -64l100 -49h156z" />
    <glyph glyph-name="L" unicode="L" 
d="M418 0l-114 114h-156l-114 -114h384zM133 434v164l-113 114v-349zM433 14v335l-115 -57v-163zM133 129v163l-113 57v-335z" />
    <glyph glyph-name="M" unicode="M" horiz-adv-x="752" 
d="M718 712h-684l112 -114h159l71 71l69 -71h158zM433 114v178l-57 57l-58 -57v-178l58 -114zM732 0v349l-114 -57v-178zM133 114v178l-113 57v-349zM732 363v334l-114 -114v-149zM133 434v149l-113 115v-335zM432 405v178l-57 59l-57 -59v-178l58 -42z" />
    <glyph glyph-name="N" unicode="N" 
d="M133 100v192l-113 57v-349zM433 0v349l-115 -57v-163zM369 663l-51 49h-185l-49 -49l64 -65h156zM433 363v235l-50 50l-65 -65v-149zM133 434v149l-64 65l-49 -50v-235z" />
    <glyph glyph-name="O" unicode="O" 
d="M433 114v235l-115 -57v-163l65 -65zM369 663l-51 49h-185l-49 -49l64 -65h156zM369 49l-65 65h-156l-64 -65l49 -49h185zM133 129v163l-113 57v-235l49 -50zM433 363v235l-50 50l-65 -65v-149zM133 434v149l-64 65l-49 -50v-235z" />
    <glyph glyph-name="P" unicode="P" 
d="M133 114v178l-113 57v-349zM404 356l-100 64h-156l-100 -64l100 -49h156zM369 663l-51 49h-284l114 -114h156zM133 434v149l-113 115v-335zM433 363v235l-50 50l-65 -65v-149z" />
    <glyph glyph-name="Q" unicode="Q" horiz-adv-x="454" 
d="M434 -145v162l-97 97h-162zM369 663l-51 49h-185l-49 -49l64 -65h156zM133 126v166l-113 57v-235l49 -50zM433 363v235l-50 50l-65 -65v-149zM133 434v149l-64 65l-49 -50v-235zM433 146v203l-115 -57v-132l65 -64zM261 0l-112 113l-67 -62l51 -51h128z" />
    <glyph glyph-name="R" unicode="R" horiz-adv-x="510" 
d="M133 114v178l-113 57v-349zM404 356l-100 64h-156l-100 -64l100 -49h156zM369 663l-51 49h-284l114 -114h156zM490 0l-132 310l-50 -24h-58l73 -173zM133 434v149l-113 115v-335zM433 363v235l-50 50l-65 -65v-149z" />
    <glyph glyph-name="S" unicode="S" 
d="M433 712h-300l-49 -49l64 -65h156zM369 49l-65 65h-156l-128 -114h298zM404 356l-100 64h-156l-100 -64l100 -49h156zM433 114v235l-115 -57v-163l65 -65zM133 434v149l-64 65l-49 -50v-235z" />
    <glyph glyph-name="T" unicode="T" horiz-adv-x="454" 
d="M284 63v223l-57 64l-60 -64v-223l60 -63zM434 712h-414l78 -114h58l73 71l69 -71h56zM284 426v155l-56 65l-60 -66v-154l60 -63z" />
    <glyph glyph-name="U" unicode="U" 
d="M433 363v349l-115 -114v-164zM133 434v164l-113 114v-349zM433 114v235l-115 -57v-163l65 -65zM369 49l-65 65h-156l-64 -65l49 -49h185zM133 129v163l-113 57v-235l49 -50z" />
    <glyph glyph-name="V" unicode="V" 
d="M221 137l-59 161l-142 52l130 -350zM433 363v349l-115 -85v-193zM133 434v193l-113 85v-349zM433 350l-139 -51l-58 -160l68 -139zM282 0l-54 113l-58 -113h112z" />
    <glyph glyph-name="W" unicode="W" horiz-adv-x="753" 
d="M668 52l-65 62h-158l-69 -70l-70 70h-161l-63 -63l49 -51h486zM433 420v178l-57 114l-58 -114v-178l58 -57zM732 363v349l-114 -114v-178zM133 420v178l-113 114v-349zM433 129v178l-57 42l-57 -42v-178l58 -59zM733 115v235l-117 -71v-147l65 -66zM133 131v147l-113 73
v-236l48 -49z" />
    <glyph glyph-name="X" unicode="X" horiz-adv-x="457" 
d="M219 227v118h-67l-132 -228v-117h66zM437 0v112l-134 233h-65v-118l130 -227h69zM219 367v114l-130 231h-69v-113l135 -232h64zM437 593v119h-64l-134 -231v-114h64z" />
    <glyph glyph-name="Y" unicode="Y" 
d="M285 64v221h-117v-221l58 -64zM433 363v349l-115 -114v-164zM133 434v164l-113 114v-349zM404 356l-100 64h-156l-100 -64l100 -49h156z" />
    <glyph glyph-name="Z" unicode="Z" horiz-adv-x="455" 
d="M276 318l-128 9l-128 -219v-108h91zM435 595v117h-63l-160 -271l71 -107zM349 712h-328l114 -114h147zM434 0l-115 114h-129l-60 -114h304z" />
    <glyph glyph-name="bracketleft" unicode="[" horiz-adv-x="282" 
d="M134 420v283l-64 65l-50 -50v-355zM134 9v269l-114 71v-355l50 -50zM262 -120l-71 114h-43l-64 -65l50 -49h128zM262 832h-128l-50 -49l64 -65h43z" />
    <glyph glyph-name="bracketright" unicode="]" horiz-adv-x="282" 
d="M262 363v355l-50 50l-64 -65v-283zM262 -6v355l-114 -71v-269l64 -65zM198 -71l-64 65h-43l-71 -114h128zM198 783l-50 49h-128l71 -114h43z" />
    <glyph glyph-name="asciicircum" unicode="^" horiz-adv-x="433" 
d="M413 551l-121 199l-68 -139l38 -60h151zM209 613l-71 137l-118 -198h150zM270 750h-112l58 -113z" />
    <glyph glyph-name="underscore" unicode="_" horiz-adv-x="607" 
d="M587 -119v119h-567v-119h567z" />
    <glyph glyph-name="grave" unicode="`" horiz-adv-x="241" 
d="M221 783l-78 136h-123l84 -136h117z" />
    <glyph glyph-name="a" unicode="a" 
d="M418 712h-384l114 -114h156zM433 0v349l-115 -57v-178zM133 114v178l-113 57v-349zM404 356l-100 64h-156l-100 -64l100 -49h156zM433 363v335l-115 -115v-149zM133 434v149l-113 115v-335z" />
    <glyph glyph-name="b" unicode="b" 
d="M404 356l-100 64h-156l-100 -64l100 -49h156zM369 663l-51 49h-284l114 -114h156zM369 49l-65 65h-156l-114 -114h284zM133 129v163l-113 57v-335zM133 434v149l-113 115v-335zM433 114v235l-115 -57v-163l65 -65zM433 363v235l-50 50l-65 -65v-149z" />
    <glyph glyph-name="c" unicode="c" horiz-adv-x="438" 
d="M418 712h-285l-49 -49l64 -65h156zM418 0l-114 114h-156l-64 -65l49 -49h285zM133 420v163l-64 65l-49 -50v-235zM133 129v149l-113 71v-235l49 -50z" />
    <glyph glyph-name="d" unicode="d" 
d="M369 663l-51 49h-284l114 -114h156zM369 49l-65 65h-156l-114 -114h284zM133 129v163l-113 57v-335zM133 434v149l-113 115v-335zM433 114v235l-115 -57v-163l65 -65zM433 363v235l-50 50l-65 -65v-149z" />
    <glyph glyph-name="e" unicode="e" horiz-adv-x="438" 
d="M418 712h-384l114 -114h156zM418 0l-114 114h-156l-114 -114h384zM404 356l-100 64h-156l-100 -64l100 -49h156zM133 129v163l-113 57v-335zM133 434v149l-113 115v-335z" />
    <glyph glyph-name="f" unicode="f" horiz-adv-x="438" 
d="M418 712h-384l114 -114h156zM133 114v178l-113 57v-349zM404 356l-100 64h-156l-100 -64l100 -49h156zM133 434v149l-113 115v-335z" />
    <glyph glyph-name="g" unicode="g" 
d="M433 114v235l-115 -57v-163l65 -65zM369 663l-51 49h-185l-49 -49l64 -65h156zM369 49l-65 65h-156l-64 -65l49 -49h185zM133 129v163l-113 57v-235l49 -50zM133 434v149l-64 65l-49 -50v-235zM404 356l-100 64h-71l-100 -64l100 -49h71z" />
    <glyph glyph-name="h" unicode="h" 
d="M433 0v349l-115 -57v-178zM133 114v178l-113 57v-349zM433 363v349l-115 -114v-164zM133 434v164l-113 114v-349zM404 356l-100 64h-156l-100 -64l100 -49h156z" />
    <glyph glyph-name="i" unicode="i" horiz-adv-x="153" 
d="M133 0v349l-113 -57v-178zM133 363v349l-113 -114v-164z" />
    <glyph glyph-name="j" unicode="j" 
d="M418 0l-114 114h-156l-114 -114h384zM433 363v349l-115 -114v-164zM433 14v335l-115 -57v-163zM133 129v163l-113 57v-335z" />
    <glyph glyph-name="k" unicode="k" 
d="M433 635v77h-82l-164 -271h130zM433 0v349l-115 -57v-178zM133 114v178l-113 57v-349zM133 434v164l-113 114v-349zM404 356l-100 64h-156l-100 -64l100 -49h156z" />
    <glyph glyph-name="l" unicode="l" 
d="M418 0l-114 114h-156l-114 -114h384zM133 434v164l-113 114v-349zM433 14v335l-115 -57v-163zM133 129v163l-113 57v-335z" />
    <glyph glyph-name="m" unicode="m" horiz-adv-x="752" 
d="M718 712h-684l112 -114h159l71 71l69 -71h158zM433 114v178l-57 57l-58 -57v-178l58 -114zM732 0v349l-114 -57v-178zM133 114v178l-113 57v-349zM732 363v334l-114 -114v-149zM133 434v149l-113 115v-335zM432 405v178l-57 59l-57 -59v-178l58 -42z" />
    <glyph glyph-name="n" unicode="n" 
d="M133 100v192l-113 57v-349zM433 0v349l-115 -57v-163zM369 663l-51 49h-185l-49 -49l64 -65h156zM433 363v235l-50 50l-65 -65v-149zM133 434v149l-64 65l-49 -50v-235z" />
    <glyph glyph-name="o" unicode="o" 
d="M433 114v235l-115 -57v-163l65 -65zM369 663l-51 49h-185l-49 -49l64 -65h156zM369 49l-65 65h-156l-64 -65l49 -49h185zM133 129v163l-113 57v-235l49 -50zM433 363v235l-50 50l-65 -65v-149zM133 434v149l-64 65l-49 -50v-235z" />
    <glyph glyph-name="p" unicode="p" 
d="M133 114v178l-113 57v-349zM404 356l-100 64h-156l-100 -64l100 -49h156zM369 663l-51 49h-284l114 -114h156zM133 434v149l-113 115v-335zM433 363v235l-50 50l-65 -65v-149z" />
    <glyph glyph-name="q" unicode="q" horiz-adv-x="454" 
d="M434 -145v162l-97 97h-162zM369 663l-51 49h-185l-49 -49l64 -65h156zM133 126v166l-113 57v-235l49 -50zM433 363v235l-50 50l-65 -65v-149zM133 434v149l-64 65l-49 -50v-235zM433 146v203l-115 -57v-132l65 -64zM261 0l-112 113l-67 -62l51 -51h128z" />
    <glyph glyph-name="r" unicode="r" horiz-adv-x="510" 
d="M133 114v178l-113 57v-349zM404 356l-100 64h-156l-100 -64l100 -49h156zM369 663l-51 49h-284l114 -114h156zM490 0l-132 310l-50 -24h-58l73 -173zM133 434v149l-113 115v-335zM433 363v235l-50 50l-65 -65v-149z" />
    <glyph glyph-name="s" unicode="s" 
d="M433 712h-300l-49 -49l64 -65h156zM369 49l-65 65h-156l-128 -114h298zM404 356l-100 64h-156l-100 -64l100 -49h156zM433 114v235l-115 -57v-163l65 -65zM133 434v149l-64 65l-49 -50v-235z" />
    <glyph glyph-name="t" unicode="t" horiz-adv-x="454" 
d="M284 63v223l-57 64l-60 -64v-223l60 -63zM434 712h-414l78 -114h58l73 71l69 -71h56zM284 426v155l-56 65l-60 -66v-154l60 -63z" />
    <glyph glyph-name="u" unicode="u" 
d="M433 363v349l-115 -114v-164zM133 434v164l-113 114v-349zM433 114v235l-115 -57v-163l65 -65zM369 49l-65 65h-156l-64 -65l49 -49h185zM133 129v163l-113 57v-235l49 -50z" />
    <glyph glyph-name="v" unicode="v" 
d="M221 137l-59 161l-142 52l130 -350zM433 363v349l-115 -85v-193zM133 434v193l-113 85v-349zM433 350l-139 -51l-58 -160l68 -139zM282 0l-54 113l-58 -113h112z" />
    <glyph glyph-name="w" unicode="w" horiz-adv-x="753" 
d="M668 52l-65 62h-158l-69 -70l-70 70h-161l-63 -63l49 -51h486zM433 420v178l-57 114l-58 -114v-178l58 -57zM732 363v349l-114 -114v-178zM133 420v178l-113 114v-349zM433 129v178l-57 42l-57 -42v-178l58 -59zM733 115v235l-117 -71v-147l65 -66zM133 131v147l-113 73
v-236l48 -49z" />
    <glyph glyph-name="x" unicode="x" horiz-adv-x="457" 
d="M219 227v118h-67l-132 -228v-117h66zM437 0v112l-134 233h-65v-118l130 -227h69zM219 367v114l-130 231h-69v-113l135 -232h64zM437 593v119h-64l-134 -231v-114h64z" />
    <glyph glyph-name="y" unicode="y" 
d="M285 64v221h-117v-221l58 -64zM433 363v349l-115 -114v-164zM133 434v164l-113 114v-349zM404 356l-100 64h-156l-100 -64l100 -49h156z" />
    <glyph glyph-name="z" unicode="z" horiz-adv-x="455" 
d="M276 318l-128 9l-128 -219v-108h91zM435 595v117h-63l-160 -271l71 -107zM349 712h-328l114 -114h147zM434 0l-115 114h-129l-60 -114h304z" />
    <glyph glyph-name="braceleft" unicode="{" horiz-adv-x="282" 
d="M134 420v283l-64 65l-50 -50v-355zM134 9v269l-114 71v-355l50 -50zM262 -120l-71 114h-43l-64 -65l50 -49h128zM262 832h-128l-50 -49l64 -65h43z" />
    <glyph glyph-name="bar" unicode="|" horiz-adv-x="153" 
d="M133 -80v429l-113 -57v-258zM133 363v429l-113 -114v-244z" />
    <glyph glyph-name="braceright" unicode="}" horiz-adv-x="282" 
d="M262 363v355l-50 50l-64 -65v-283zM262 -6v355l-114 -71v-269l64 -65zM198 -71l-64 65h-43l-71 -114h128zM198 783l-50 49h-128l71 -114h43z" />
    <glyph glyph-name="asciitilde" unicode="~" horiz-adv-x="468" 
d="M369 591l-51 49h-185l-49 -49l64 -65h156zM448 641v58h-115v-43l65 -65zM133 472v39l-64 65l-49 -50v-54h113z" />
    <glyph glyph-name="quotesinglbase" unicode="&#x201a;" horiz-adv-x="153" 
d="M133 -133v245l-113 -57v-153z" />
    <glyph glyph-name="quotedblbase" unicode="&#x201e;" horiz-adv-x="353" 
d="M333 -133v245l-113 -57v-153zM133 -133v245l-113 -57v-153z" />
    <glyph glyph-name="ellipsis" unicode="&#x2026;" horiz-adv-x="753" 
d="M733 0v178h-113v-178h113zM133 0v178h-113v-178h113zM433 0v178h-113v-178h113z" />
    <glyph glyph-name="guilsinglleft" unicode="&#x2039;" horiz-adv-x="232" 
d="M135 229v118l-65 65l-50 -50v-148l50 -50zM212 100v114h-63l-65 -65l51 -49h77zM212 362v114h-77l-51 -49l65 -65h63z" />
    <glyph glyph-name="quoteleft" unicode="&#x2018;" horiz-adv-x="153" 
d="M133 467v245l-113 -57v-153z" />
    <glyph glyph-name="quoteright" unicode="&#x2019;" horiz-adv-x="153" 
d="M133 467v245l-113 -57v-153z" />
    <glyph glyph-name="quotedblleft" unicode="&#x201c;" horiz-adv-x="353" 
d="M333 467v245l-113 -57v-153zM133 467v245l-113 -57v-153z" />
    <glyph glyph-name="quotedblright" unicode="&#x201d;" horiz-adv-x="353" 
d="M333 467v245l-113 -57v-153zM133 467v245l-113 -57v-153z" />
    <glyph glyph-name="bullet" unicode="&#x2022;" horiz-adv-x="439" 
d="M419 357q0 83 -58 140q-59 57 -138 57q-86 0 -144 -57q-59 -57 -59 -140t58 -141t138 -58q86 0 144 58q59 59 59 141z" />
    <glyph glyph-name="endash" unicode="&#x2013;" horiz-adv-x="396" 
d="M376 223v102h-356v-102h356z" />
    <glyph glyph-name="emdash" unicode="&#x2014;" horiz-adv-x="752" 
d="M732 223v102h-712v-102h712z" />
    <glyph glyph-name="guilsinglright" unicode="&#x203a;" horiz-adv-x="232" 
d="M212 214v148l-50 50l-65 -65v-118l65 -65zM148 149l-65 65h-63v-114h77zM148 427l-51 49h-77v-114h63z" />
    <glyph glyph-name="guillemotleft" unicode="&#xab;" horiz-adv-x="452" 
d="M355 229v118l-65 65l-50 -50v-148l50 -50zM135 229v118l-65 65l-50 -50v-148l50 -50zM432 362v114h-77l-51 -49l65 -65h63zM432 100v114h-63l-65 -65l51 -49h77zM212 362v114h-77l-51 -49l65 -65h63zM212 100v114h-63l-65 -65l51 -49h77z" />
    <glyph glyph-name="logicalnot" unicode="&#xac;" horiz-adv-x="607" 
d="M587 114v322h-567v-119h452v-203h115z" />
    <glyph glyph-name="degree" unicode="&#xb0;" 
d="M433 492v193l-50 50l-65 -65v-163l65 -65zM133 507v163l-64 65l-49 -50v-193l49 -50zM369 427l-65 65h-156l-64 -65l49 -49h185zM369 750l-51 49h-185l-49 -49l64 -65h156z" />
    <glyph glyph-name="plusminus" unicode="&#xb1;" horiz-adv-x="607" 
d="M587 354v120h-223v222h-120v-222h-224v-120h224v-226h120v226h223zM587 -58v120h-567v-120h567z" />
    <glyph glyph-name="periodcentered" unicode="&#xb7;" horiz-adv-x="153" 
d="M133 320v178h-113v-178h113z" />
    <glyph glyph-name="guillemotright" unicode="&#xbb;" horiz-adv-x="452" 
d="M432 214v148l-50 50l-65 -65v-118l65 -65zM212 214v148l-50 50l-65 -65v-118l65 -65zM368 427l-51 49h-77v-114h63zM368 149l-65 65h-63v-114h77zM148 427l-51 49h-77v-114h63zM148 149l-65 65h-63v-114h77z" />
    <glyph glyph-name="FL002Fh" horiz-adv-x="587" 
d="M567 712h-101l-446 -712h102z" />
    <glyph glyph-name="FL005Ch" horiz-adv-x="587" 
d="M20 712l445 -712h102l-446 712h-101z" />
    <glyph glyph-name="FL00C0h" 
d="M418 712h-384l114 -114h156zM433 0v349l-115 -57v-178zM133 114v178l-113 57v-349zM404 356l-100 64h-156l-100 -64l100 -49h156zM433 363v335l-115 -115v-149zM133 434v149l-113 115v-335z" />
    <glyph glyph-name="FL00C1h" 
d="M404 356l-100 64h-156l-100 -64l100 -49h156zM369 49l-65 65h-156l-114 -114h284zM405 712h-371l114 -114h156zM133 129v163l-113 57v-335zM133 434v149l-113 115v-335zM433 114v235l-115 -57v-163l65 -65z" />
    <glyph glyph-name="FL00C2h" 
d="M404 356l-100 64h-156l-100 -64l100 -49h156zM369 663l-51 49h-284l114 -114h156zM369 49l-65 65h-156l-114 -114h284zM133 129v163l-113 57v-335zM133 434v149l-113 115v-335zM433 114v235l-115 -57v-163l65 -65zM433 363v235l-50 50l-65 -65v-149z" />
    <glyph glyph-name="FL00C3h" horiz-adv-x="438" 
d="M418 712h-384l114 -114h156zM133 278l-113 71v-349l113 114v164zM133 583l-113 115v-335l113 57v163z" />
    <glyph glyph-name="FL00C4h" horiz-adv-x="695" 
d="M144 115l-124 -115h655l-114 114zM208 663l65 -65h156l114 114h-284zM444 434l113 -71v335l-113 -115v-149zM144 363l115 71v149l-65 65l-50 -50v-235zM144 129h115v163l-115 57v-220zM444 129h113v220l-113 -57v-163z" />
    <glyph glyph-name="FL00C5h" horiz-adv-x="438" 
d="M418 712h-384l114 -114h156zM418 0l-114 114h-156l-114 -114h384zM404 356l-100 64h-156l-100 -64l100 -49h156zM133 129v163l-113 57v-335zM133 434v149l-113 115v-335z" />
    <glyph glyph-name="FL00C6h" horiz-adv-x="752" 
d="M432 114v200l15 -7h156l100 49l-100 64h-156l-14 -9v301l-113 -114v-187l-15 9h-156l-100 -64l100 -49h156l14 7v-314zM20 635l116 -194h130l-164 271h-82v-77zM732 635v77h-82l-164 -271h130zM20 0l115 114v178l-115 57v-349zM732 0v349l-115 -57v-178zM395 387l-19 -13
l-19 13l19 12zM397 331l-21 -11l-22 11l22 10z" />
    <glyph glyph-name="FL00C7h" horiz-adv-x="439" 
d="M390 356l-100 64h-156l-100 -64l100 -49h156zM355 49l-65 65h-156l-114 -114h284zM355 663l-51 49h-284l114 -114h156zM419 114v235l-115 -57v-163l65 -65zM419 363v235l-50 50l-65 -65v-149z" />
    <glyph glyph-name="FL00C8h" 
d="M433 363v349l-115 -114v-164zM433 0v349l-115 -57v-163zM133 434v164l-113 114v-349zM369 49l-65 65h-156l-64 -65l49 -49h185zM133 129v163l-113 57v-235l49 -50z" />
    <glyph glyph-name="FL00C9h" 
d="M433 363v349l-115 -114v-164zM433 0v349l-115 -57v-163zM133 434v164l-113 114v-349zM369 49l-65 65h-156l-64 -65l49 -49h185zM133 129v163l-113 57v-235l49 -50zM282 664v178h-113v-178h113z" />
    <glyph glyph-name="FL00CAh" 
d="M433 635v77h-82l-164 -271h130zM433 0v349l-115 -57v-178zM133 114v178l-113 57v-349zM133 434v164l-113 114v-349zM404 356l-100 64h-156l-100 -64l100 -49h156z" />
    <glyph glyph-name="FL00CBh" 
d="M221 575l-71 137l-130 -350l142 52zM433 349l-115 -71v-193l115 -85v349zM133 278l-113 71v-349l113 85v193zM433 362l-129 350l-68 -139l58 -160zM282 712h-112l58 -113z" />
    <glyph glyph-name="FL00CCh" horiz-adv-x="752" 
d="M718 712h-684l112 -114h159l71 71l69 -71h158zM433 114v178l-57 57l-58 -57v-178l58 -114zM732 0v349l-114 -57v-178zM133 114v178l-113 57v-349zM732 363v334l-114 -114v-149zM133 434v149l-113 115v-335zM432 405v178l-57 59l-57 -59v-178l58 -42z" />
    <glyph glyph-name="FL00CDh" 
d="M433 0v349l-115 -57v-178zM133 114v178l-113 57v-349zM433 363v349l-115 -114v-164zM133 434v164l-113 114v-349zM404 356l-100 64h-156l-100 -64l100 -49h156z" />
    <glyph glyph-name="FL00CEh" 
d="M433 114v235l-115 -57v-163l65 -65zM369 663l-51 49h-185l-49 -49l64 -65h156zM369 49l-65 65h-156l-64 -65l49 -49h185zM133 129v163l-113 57v-235l49 -50zM433 363v235l-50 50l-65 -65v-149zM133 434v149l-64 65l-49 -50v-235z" />
    <glyph glyph-name="FL00CFh" horiz-adv-x="455" 
d="M309 598l112 114h-386l115 -114h159zM133 116v178l-113 57v-349zM322 114l113 -114v349l-113 -57v-178zM322 434l113 -71v335l-113 -115v-149zM133 436v149l-113 115v-335z" />
    <glyph glyph-name="FL00D1h" horiz-adv-x="438" 
d="M418 712h-285l-49 -49l64 -65h156zM418 0l-114 114h-156l-64 -65l49 -49h285zM133 420v163l-64 65l-49 -50v-235zM133 129v149l-113 71v-235l49 -50z" />
    <glyph glyph-name="FL00D2h" horiz-adv-x="454" 
d="M284 63v223l-57 64l-60 -64v-223l60 -63zM434 712h-414l78 -114h58l73 71l69 -71h56zM284 426v155l-56 65l-60 -66v-154l60 -63z" />
    <glyph glyph-name="FL00D3h" 
d="M289 116h-178l-59 -116h349zM433 0v349l-115 -57v-176zM433 363v349l-115 -114v-164zM133 434v164l-113 114v-349zM404 356l-100 64h-156l-100 -64l100 -49h156z" />
    <glyph glyph-name="FL00D4h" horiz-adv-x="757" 
d="M437 108v178l-113 57v-349zM708 350l-100 64h-156l-100 -64l100 -49h156zM673 657l-51 49h-284l114 -114h156zM437 428v149l-113 115v-335zM737 357v235l-50 50l-65 -65v-149zM20 357l115 71v149l-65 65l-50 -50v-235zM49 350l100 -49h156v113h-156zM84 657l65 -65h156
v114h-170z" />
    <glyph glyph-name="FL00D5h" horiz-adv-x="457" 
d="M219 227v118h-67l-132 -228v-117h66zM437 0v112l-134 233h-65v-118l130 -227h69zM219 367v114l-130 231h-69v-113l135 -232h64zM437 593v119h-64l-134 -231v-114h64z" />
    <glyph glyph-name="FL00D6h" horiz-adv-x="630" 
d="M433 363v349l-115 -114v-164zM133 434v164l-113 114v-349zM348 -155l262 257h-164l-98 -98v-159zM433 114v235l-115 -57v-163l65 -65zM369 49l-65 65h-156l-64 -65l49 -49h185zM133 129v163l-113 57v-235l49 -50z" />
    <glyph glyph-name="FL00D8h" horiz-adv-x="766" 
d="M746 0l-143 114h-158l-69 -70l-70 70h-161l-63 -63l49 -51h615zM433 420v178l-57 114l-58 -114v-178l58 -57zM732 363v349l-114 -114v-178zM133 420v178l-113 114v-349zM733 350l-117 -71v-147l117 -91v309zM433 129v178l-57 42l-57 -42v-178l58 -59zM133 131v147
l-113 73v-236l48 -49z" />
    <glyph glyph-name="FL00D9h" horiz-adv-x="939" 
d="M668 52l-65 62h-158l-69 -70l-70 70h-161l-63 -63l49 -51h486zM433 420v178l-57 114l-58 -114v-178l58 -57zM732 363v349l-114 -114v-178zM133 420v178l-113 114v-349zM654 -156l265 258h-167l-98 -99v-159zM433 129v178l-57 42l-57 -42v-178l58 -59zM733 115v235
l-117 -71v-147l65 -66zM133 131v147l-113 73v-236l48 -49z" />
    <glyph glyph-name="FL00DAh" horiz-adv-x="625" 
d="M306 712l-113 -114v-235l112 57zM20 452l262 260h-165l-97 -101v-159zM576 356l-100 49h-156l-100 -49l100 -64h156zM541 49l-65 65h-156l-114 -114h284zM305 278l-113 71v-335l113 115v149zM605 349l-115 -71v-149l65 -65l50 50v235z" />
    <glyph glyph-name="FL00DBh" horiz-adv-x="688" 
d="M133 598l-113 114v-349l113 57v178zM668 0v349l-113 -57v-178zM668 363v349l-113 -114v-164zM404 356l-100 49h-156l-100 -49l100 -64h156zM369 49l-65 65h-156l-114 -114h284zM133 278l-113 71v-335l113 115v149zM433 349l-115 -71v-149l65 -65l50 50v235z" />
    <glyph glyph-name="FL00DCh" 
d="M133 598l-113 114v-349l113 57v178zM404 356l-100 49h-156l-100 -49l100 -64h156zM369 49l-65 65h-156l-114 -114h284zM133 278l-113 71v-335l113 115v149zM433 349l-115 -71v-149l65 -65l50 50v235z" />
    <glyph glyph-name="FL00DFh" horiz-adv-x="510" 
d="M377 114l113 -114v349l-113 -57v-178zM106 356l100 -49h156l100 49l-100 64h-156zM141 663l65 -65h156l114 114h-284zM20 0l167 113l73 173h-58l-50 24zM377 434l113 -71v335l-113 -115v-149zM77 363l115 71v149l-65 65l-50 -50v-235z" />
    <glyph glyph-name="FL00E0h" 
d="M418 712h-384l114 -114h156zM433 0v349l-115 -57v-178zM133 114v178l-113 57v-349zM404 356l-100 64h-156l-100 -64l100 -49h156zM433 363v335l-115 -115v-149zM133 434v149l-113 115v-335z" />
    <glyph glyph-name="FL00E1h" 
d="M404 356l-100 64h-156l-100 -64l100 -49h156zM369 49l-65 65h-156l-114 -114h284zM405 712h-371l114 -114h156zM133 129v163l-113 57v-335zM133 434v149l-113 115v-335zM433 114v235l-115 -57v-163l65 -65z" />
    <glyph glyph-name="FL00E2h" 
d="M404 356l-100 64h-156l-100 -64l100 -49h156zM369 663l-51 49h-284l114 -114h156zM369 49l-65 65h-156l-114 -114h284zM133 129v163l-113 57v-335zM133 434v149l-113 115v-335zM433 114v235l-115 -57v-163l65 -65zM433 363v235l-50 50l-65 -65v-149z" />
    <glyph glyph-name="FL00E3h" horiz-adv-x="438" 
d="M418 712h-384l114 -114h156zM133 278l-113 71v-349l113 114v164zM133 583l-113 115v-335l113 57v163z" />
    <glyph glyph-name="FL00E4h" horiz-adv-x="695" 
d="M144 115l-124 -115h655l-114 114zM208 663l65 -65h156l114 114h-284zM444 434l113 -71v335l-113 -115v-149zM144 363l115 71v149l-65 65l-50 -50v-235zM144 129h115v163l-115 57v-220zM444 129h113v220l-113 -57v-163z" />
    <glyph glyph-name="FL00E5h" horiz-adv-x="438" 
d="M418 712h-384l114 -114h156zM418 0l-114 114h-156l-114 -114h384zM404 356l-100 64h-156l-100 -64l100 -49h156zM133 129v163l-113 57v-335zM133 434v149l-113 115v-335z" />
    <glyph glyph-name="FL00E6h" horiz-adv-x="752" 
d="M432 114v200l15 -7h156l100 49l-100 64h-156l-14 -9v301l-113 -114v-187l-15 9h-156l-100 -64l100 -49h156l14 7v-314zM20 635l116 -194h130l-164 271h-82v-77zM732 635v77h-82l-164 -271h130zM20 0l115 114v178l-115 57v-349zM732 0v349l-115 -57v-178zM395 387l-19 -13
l-19 13l19 12zM397 331l-21 -11l-22 11l22 10z" />
    <glyph glyph-name="FL00E7h" horiz-adv-x="439" 
d="M390 356l-100 64h-156l-100 -64l100 -49h156zM355 49l-65 65h-156l-114 -114h284zM355 663l-51 49h-284l114 -114h156zM419 114v235l-115 -57v-163l65 -65zM419 363v235l-50 50l-65 -65v-149z" />
    <glyph glyph-name="FL00E8h" 
d="M433 363v349l-115 -114v-164zM433 0v349l-115 -57v-163zM133 434v164l-113 114v-349zM369 49l-65 65h-156l-64 -65l49 -49h185zM133 129v163l-113 57v-235l49 -50z" />
    <glyph glyph-name="FL00E9h" 
d="M433 363v349l-115 -114v-164zM433 0v349l-115 -57v-163zM133 434v164l-113 114v-349zM369 49l-65 65h-156l-64 -65l49 -49h185zM133 129v163l-113 57v-235l49 -50zM282 664v178h-113v-178h113z" />
    <glyph glyph-name="FL00EAh" 
d="M433 635v77h-82l-164 -271h130zM433 0v349l-115 -57v-178zM133 114v178l-113 57v-349zM133 434v164l-113 114v-349zM404 356l-100 64h-156l-100 -64l100 -49h156z" />
    <glyph glyph-name="FL00EBh" 
d="M221 575l-71 137l-130 -350l142 52zM433 349l-115 -71v-193l115 -85v349zM133 278l-113 71v-349l113 85v193zM433 362l-129 350l-68 -139l58 -160zM282 712h-112l58 -113z" />
    <glyph glyph-name="FL00ECh" horiz-adv-x="752" 
d="M718 712h-684l112 -114h159l71 71l69 -71h158zM433 114v178l-57 57l-58 -57v-178l58 -114zM732 0v349l-114 -57v-178zM133 114v178l-113 57v-349zM732 363v334l-114 -114v-149zM133 434v149l-113 115v-335zM432 405v178l-57 59l-57 -59v-178l58 -42z" />
    <glyph glyph-name="FL00EDh" 
d="M433 0v349l-115 -57v-178zM133 114v178l-113 57v-349zM433 363v349l-115 -114v-164zM133 434v164l-113 114v-349zM404 356l-100 64h-156l-100 -64l100 -49h156z" />
    <glyph glyph-name="FL00EEh" 
d="M433 114v235l-115 -57v-163l65 -65zM369 663l-51 49h-185l-49 -49l64 -65h156zM369 49l-65 65h-156l-64 -65l49 -49h185zM133 129v163l-113 57v-235l49 -50zM433 363v235l-50 50l-65 -65v-149zM133 434v149l-64 65l-49 -50v-235z" />
    <glyph glyph-name="FL00EFh" horiz-adv-x="455" 
d="M309 598l112 114h-386l115 -114h159zM133 116v178l-113 57v-349zM322 114l113 -114v349l-113 -57v-178zM322 434l113 -71v335l-113 -115v-149zM133 436v149l-113 115v-335z" />
    <glyph glyph-name="FL00F1h" horiz-adv-x="438" 
d="M418 712h-285l-49 -49l64 -65h156zM418 0l-114 114h-156l-64 -65l49 -49h285zM133 420v163l-64 65l-49 -50v-235zM133 129v149l-113 71v-235l49 -50z" />
    <glyph glyph-name="FL00F2h" horiz-adv-x="454" 
d="M284 63v223l-57 64l-60 -64v-223l60 -63zM434 712h-414l78 -114h58l73 71l69 -71h56zM284 426v155l-56 65l-60 -66v-154l60 -63z" />
    <glyph glyph-name="FL00F3h" 
d="M289 116h-178l-59 -116h349zM433 0v349l-115 -57v-176zM433 363v349l-115 -114v-164zM133 434v164l-113 114v-349zM404 356l-100 64h-156l-100 -64l100 -49h156z" />
    <glyph glyph-name="FL00F4h" horiz-adv-x="757" 
d="M437 108v178l-113 57v-349zM708 350l-100 64h-156l-100 -64l100 -49h156zM673 657l-51 49h-284l114 -114h156zM437 428v149l-113 115v-335zM737 357v235l-50 50l-65 -65v-149zM20 357l115 71v149l-65 65l-50 -50v-235zM49 350l100 -49h156v113h-156zM84 657l65 -65h156
v114h-170z" />
    <glyph glyph-name="FL00F5h" horiz-adv-x="457" 
d="M219 227v118h-67l-132 -228v-117h66zM437 0v112l-134 233h-65v-118l130 -227h69zM219 367v114l-130 231h-69v-113l135 -232h64zM437 593v119h-64l-134 -231v-114h64z" />
    <glyph glyph-name="FL00F6h" horiz-adv-x="630" 
d="M433 363v349l-115 -114v-164zM133 434v164l-113 114v-349zM348 -155l262 257h-164l-98 -98v-159zM433 114v235l-115 -57v-163l65 -65zM369 49l-65 65h-156l-64 -65l49 -49h185zM133 129v163l-113 57v-235l49 -50z" />
    <glyph glyph-name="FL00F7h" 
d="M433 0v349l-115 -57v-178zM433 363v349l-115 -114v-164zM133 434v164l-113 114v-349zM404 356l-100 64h-156l-100 -64l100 -49h156z" />
    <glyph glyph-name="FL00F8h" horiz-adv-x="766" 
d="M746 0l-143 114h-158l-69 -70l-70 70h-161l-63 -63l49 -51h615zM433 420v178l-57 114l-58 -114v-178l58 -57zM732 363v349l-114 -114v-178zM133 420v178l-113 114v-349zM733 350l-117 -71v-147l117 -91v309zM433 129v178l-57 42l-57 -42v-178l58 -59zM133 131v147
l-113 73v-236l48 -49z" />
    <glyph glyph-name="FL00F9h" horiz-adv-x="939" 
d="M668 52l-65 62h-158l-69 -70l-70 70h-161l-63 -63l49 -51h486zM433 420v178l-57 114l-58 -114v-178l58 -57zM732 363v349l-114 -114v-178zM133 420v178l-113 114v-349zM654 -156l265 258h-167l-98 -99v-159zM433 129v178l-57 42l-57 -42v-178l58 -59zM733 115v235
l-117 -71v-147l65 -66zM133 131v147l-113 73v-236l48 -49z" />
    <glyph glyph-name="FL00FAh" horiz-adv-x="625" 
d="M306 712l-113 -114v-235l112 57zM20 452l262 260h-165l-97 -101v-159zM576 356l-100 49h-156l-100 -49l100 -64h156zM541 49l-65 65h-156l-114 -114h284zM305 278l-113 71v-335l113 115v149zM605 349l-115 -71v-149l65 -65l50 50v235z" />
    <glyph glyph-name="FL00FBh" horiz-adv-x="688" 
d="M133 598l-113 114v-349l113 57v178zM668 0v349l-113 -57v-178zM668 363v349l-113 -114v-164zM404 356l-100 49h-156l-100 -49l100 -64h156zM369 49l-65 65h-156l-114 -114h284zM133 278l-113 71v-335l113 115v149zM433 349l-115 -71v-149l65 -65l50 50v235z" />
    <glyph glyph-name="FL00FCh" 
d="M133 598l-113 114v-349l113 57v178zM404 356l-100 49h-156l-100 -49l100 -64h156zM369 49l-65 65h-156l-114 -114h284zM133 278l-113 71v-335l113 115v149zM433 349l-115 -71v-149l65 -65l50 50v235z" />
    <glyph glyph-name="FL00FFh" horiz-adv-x="510" 
d="M377 114l113 -114v349l-113 -57v-178zM106 356l100 -49h156l100 49l-100 64h-156zM141 663l65 -65h156l114 114h-284zM20 0l167 113l73 173h-58l-50 24zM377 434l113 -71v335l-113 -115v-149zM77 363l115 71v149l-65 65l-50 -50v-235z" />
    <glyph glyph-name="FL00A2h" unicode="&#xa2;" horiz-adv-x="438" 
d="M418 532h-285l-49 -49l64 -65h156zM418 0l-114 114h-156l-64 -65l49 -49h285zM133 129v69l-113 71v-155l49 -50zM133 340v63l-64 65l-49 -50v-135zM291 -99v69h-113v-84l49 -50zM291 562v43l-64 65l-49 -50v-58h113z" />
    <glyph glyph-name="Agrave" unicode="&#xc0;" 
d="M418 712h-384l114 -114h156zM433 0v349l-115 -57v-178zM133 114v178l-113 57v-349zM404 356l-100 64h-156l-100 -64l100 -49h156zM433 363v335l-115 -115v-149zM133 434v149l-113 115v-335z" />
    <glyph glyph-name="Aacute" unicode="&#xc1;" 
d="M404 356l-100 64h-156l-100 -64l100 -49h156zM369 49l-65 65h-156l-114 -114h284zM405 712h-371l114 -114h156zM133 129v163l-113 57v-335zM133 434v149l-113 115v-335zM433 114v235l-115 -57v-163l65 -65z" />
    <glyph glyph-name="Acircumflex" unicode="&#xc2;" 
d="M404 356l-100 64h-156l-100 -64l100 -49h156zM369 663l-51 49h-284l114 -114h156zM369 49l-65 65h-156l-114 -114h284zM133 129v163l-113 57v-335zM133 434v149l-113 115v-335zM433 114v235l-115 -57v-163l65 -65zM433 363v235l-50 50l-65 -65v-149z" />
    <glyph glyph-name="Atilde" unicode="&#xc3;" horiz-adv-x="438" 
d="M418 712h-384l114 -114h156zM133 278l-113 71v-349l113 114v164zM133 583l-113 115v-335l113 57v163z" />
    <glyph glyph-name="Adieresis" unicode="&#xc4;" horiz-adv-x="695" 
d="M144 115l-124 -115h655l-114 114zM208 663l65 -65h156l114 114h-284zM444 434l113 -71v335l-113 -115v-149zM144 363l115 71v149l-65 65l-50 -50v-235zM144 129h115v163l-115 57v-220zM444 129h113v220l-113 -57v-163z" />
    <glyph glyph-name="Aring" unicode="&#xc5;" horiz-adv-x="438" 
d="M418 712h-384l114 -114h156zM418 0l-114 114h-156l-114 -114h384zM404 356l-100 64h-156l-100 -64l100 -49h156zM133 129v163l-113 57v-335zM133 434v149l-113 115v-335z" />
    <glyph glyph-name="AE" unicode="&#xc6;" horiz-adv-x="752" 
d="M432 114v200l15 -7h156l100 49l-100 64h-156l-14 -9v301l-113 -114v-187l-15 9h-156l-100 -64l100 -49h156l14 7v-314zM20 635l116 -194h130l-164 271h-82v-77zM732 635v77h-82l-164 -271h130zM20 0l115 114v178l-115 57v-349zM732 0v349l-115 -57v-178zM395 387l-19 -13
l-19 13l19 12zM397 331l-21 -11l-22 11l22 10z" />
    <glyph glyph-name="Ccedilla" unicode="&#xc7;" horiz-adv-x="439" 
d="M390 356l-100 64h-156l-100 -64l100 -49h156zM355 49l-65 65h-156l-114 -114h284zM355 663l-51 49h-284l114 -114h156zM419 114v235l-115 -57v-163l65 -65zM419 363v235l-50 50l-65 -65v-149z" />
    <glyph glyph-name="Egrave" unicode="&#xc8;" 
d="M433 363v349l-115 -114v-164zM433 0v349l-115 -57v-163zM133 434v164l-113 114v-349zM369 49l-65 65h-156l-64 -65l49 -49h185zM133 129v163l-113 57v-235l49 -50z" />
    <glyph glyph-name="Eacute" unicode="&#xc9;" 
d="M433 363v349l-115 -114v-164zM433 0v349l-115 -57v-163zM133 434v164l-113 114v-349zM369 49l-65 65h-156l-64 -65l49 -49h185zM133 129v163l-113 57v-235l49 -50zM282 664v178h-113v-178h113z" />
    <glyph glyph-name="Ecircumflex" unicode="&#xca;" 
d="M433 635v77h-82l-164 -271h130zM433 0v349l-115 -57v-178zM133 114v178l-113 57v-349zM133 434v164l-113 114v-349zM404 356l-100 64h-156l-100 -64l100 -49h156z" />
    <glyph glyph-name="Edieresis" unicode="&#xcb;" 
d="M221 575l-71 137l-130 -350l142 52zM433 349l-115 -71v-193l115 -85v349zM133 278l-113 71v-349l113 85v193zM433 362l-129 350l-68 -139l58 -160zM282 712h-112l58 -113z" />
    <glyph glyph-name="Igrave" unicode="&#xcc;" horiz-adv-x="752" 
d="M718 712h-684l112 -114h159l71 71l69 -71h158zM433 114v178l-57 57l-58 -57v-178l58 -114zM732 0v349l-114 -57v-178zM133 114v178l-113 57v-349zM732 363v334l-114 -114v-149zM133 434v149l-113 115v-335zM432 405v178l-57 59l-57 -59v-178l58 -42z" />
    <glyph glyph-name="Iacute" unicode="&#xcd;" 
d="M433 0v349l-115 -57v-178zM133 114v178l-113 57v-349zM433 363v349l-115 -114v-164zM133 434v164l-113 114v-349zM404 356l-100 64h-156l-100 -64l100 -49h156z" />
    <glyph glyph-name="Icircumflex" unicode="&#xce;" 
d="M433 114v235l-115 -57v-163l65 -65zM369 663l-51 49h-185l-49 -49l64 -65h156zM369 49l-65 65h-156l-64 -65l49 -49h185zM133 129v163l-113 57v-235l49 -50zM433 363v235l-50 50l-65 -65v-149zM133 434v149l-64 65l-49 -50v-235z" />
    <glyph glyph-name="Idieresis" unicode="&#xcf;" horiz-adv-x="455" 
d="M309 598l112 114h-386l115 -114h159zM133 116v178l-113 57v-349zM322 114l113 -114v349l-113 -57v-178zM322 434l113 -71v335l-113 -115v-149zM133 436v149l-113 115v-335z" />
    <glyph glyph-name="Ntilde" unicode="&#xd1;" horiz-adv-x="438" 
d="M418 712h-285l-49 -49l64 -65h156zM418 0l-114 114h-156l-64 -65l49 -49h285zM133 420v163l-64 65l-49 -50v-235zM133 129v149l-113 71v-235l49 -50z" />
    <glyph glyph-name="Ograve" unicode="&#xd2;" horiz-adv-x="454" 
d="M284 63v223l-57 64l-60 -64v-223l60 -63zM434 712h-414l78 -114h58l73 71l69 -71h56zM284 426v155l-56 65l-60 -66v-154l60 -63z" />
    <glyph glyph-name="Oacute" unicode="&#xd3;" 
d="M289 116h-178l-59 -116h349zM433 0v349l-115 -57v-176zM433 363v349l-115 -114v-164zM133 434v164l-113 114v-349zM404 356l-100 64h-156l-100 -64l100 -49h156z" />
    <glyph glyph-name="Ocircumflex" unicode="&#xd4;" horiz-adv-x="757" 
d="M437 108v178l-113 57v-349zM708 350l-100 64h-156l-100 -64l100 -49h156zM673 657l-51 49h-284l114 -114h156zM437 428v149l-113 115v-335zM737 357v235l-50 50l-65 -65v-149zM20 357l115 71v149l-65 65l-50 -50v-235zM49 350l100 -49h156v113h-156zM84 657l65 -65h156
v114h-170z" />
    <glyph glyph-name="Otilde" unicode="&#xd5;" horiz-adv-x="457" 
d="M219 227v118h-67l-132 -228v-117h66zM437 0v112l-134 233h-65v-118l130 -227h69zM219 367v114l-130 231h-69v-113l135 -232h64zM437 593v119h-64l-134 -231v-114h64z" />
    <glyph glyph-name="Odieresis" unicode="&#xd6;" horiz-adv-x="630" 
d="M433 363v349l-115 -114v-164zM133 434v164l-113 114v-349zM348 -155l262 257h-164l-98 -98v-159zM433 114v235l-115 -57v-163l65 -65zM369 49l-65 65h-156l-64 -65l49 -49h185zM133 129v163l-113 57v-235l49 -50z" />
    <glyph glyph-name="Oslash" unicode="&#xd8;" horiz-adv-x="766" 
d="M746 0l-143 114h-158l-69 -70l-70 70h-161l-63 -63l49 -51h615zM433 420v178l-57 114l-58 -114v-178l58 -57zM732 363v349l-114 -114v-178zM133 420v178l-113 114v-349zM733 350l-117 -71v-147l117 -91v309zM433 129v178l-57 42l-57 -42v-178l58 -59zM133 131v147
l-113 73v-236l48 -49z" />
    <glyph glyph-name="Ugrave" unicode="&#xd9;" horiz-adv-x="939" 
d="M668 52l-65 62h-158l-69 -70l-70 70h-161l-63 -63l49 -51h486zM433 420v178l-57 114l-58 -114v-178l58 -57zM732 363v349l-114 -114v-178zM133 420v178l-113 114v-349zM654 -156l265 258h-167l-98 -99v-159zM433 129v178l-57 42l-57 -42v-178l58 -59zM733 115v235
l-117 -71v-147l65 -66zM133 131v147l-113 73v-236l48 -49z" />
    <glyph glyph-name="Uacute" unicode="&#xda;" horiz-adv-x="625" 
d="M306 712l-113 -114v-235l112 57zM20 452l262 260h-165l-97 -101v-159zM576 356l-100 49h-156l-100 -49l100 -64h156zM541 49l-65 65h-156l-114 -114h284zM305 278l-113 71v-335l113 115v149zM605 349l-115 -71v-149l65 -65l50 50v235z" />
    <glyph glyph-name="Ucircumflex" unicode="&#xdb;" horiz-adv-x="688" 
d="M133 598l-113 114v-349l113 57v178zM668 0v349l-113 -57v-178zM668 363v349l-113 -114v-164zM404 356l-100 49h-156l-100 -49l100 -64h156zM369 49l-65 65h-156l-114 -114h284zM133 278l-113 71v-335l113 115v149zM433 349l-115 -71v-149l65 -65l50 50v235z" />
    <glyph glyph-name="Udieresis" unicode="&#xdc;" 
d="M133 598l-113 114v-349l113 57v178zM404 356l-100 49h-156l-100 -49l100 -64h156zM369 49l-65 65h-156l-114 -114h284zM133 278l-113 71v-335l113 115v149zM433 349l-115 -71v-149l65 -65l50 50v235z" />
    <glyph glyph-name="germandbls" unicode="&#xdf;" horiz-adv-x="510" 
d="M377 114l113 -114v349l-113 -57v-178zM106 356l100 -49h156l100 49l-100 64h-156zM141 663l65 -65h156l114 114h-284zM20 0l167 113l73 173h-58l-50 24zM377 434l113 -71v335l-113 -115v-149zM77 363l115 71v149l-65 65l-50 -50v-235z" />
    <glyph glyph-name="agrave" unicode="&#xe0;" 
d="M418 712h-384l114 -114h156zM433 0v349l-115 -57v-178zM133 114v178l-113 57v-349zM404 356l-100 64h-156l-100 -64l100 -49h156zM433 363v335l-115 -115v-149zM133 434v149l-113 115v-335z" />
    <glyph glyph-name="aacute" unicode="&#xe1;" 
d="M404 356l-100 64h-156l-100 -64l100 -49h156zM369 49l-65 65h-156l-114 -114h284zM405 712h-371l114 -114h156zM133 129v163l-113 57v-335zM133 434v149l-113 115v-335zM433 114v235l-115 -57v-163l65 -65z" />
    <glyph glyph-name="acircumflex" unicode="&#xe2;" 
d="M404 356l-100 64h-156l-100 -64l100 -49h156zM369 663l-51 49h-284l114 -114h156zM369 49l-65 65h-156l-114 -114h284zM133 129v163l-113 57v-335zM133 434v149l-113 115v-335zM433 114v235l-115 -57v-163l65 -65zM433 363v235l-50 50l-65 -65v-149z" />
    <glyph glyph-name="atilde" unicode="&#xe3;" horiz-adv-x="438" 
d="M418 712h-384l114 -114h156zM133 278l-113 71v-349l113 114v164zM133 583l-113 115v-335l113 57v163z" />
    <glyph glyph-name="adieresis" unicode="&#xe4;" horiz-adv-x="695" 
d="M144 115l-124 -115h655l-114 114zM208 663l65 -65h156l114 114h-284zM444 434l113 -71v335l-113 -115v-149zM144 363l115 71v149l-65 65l-50 -50v-235zM144 129h115v163l-115 57v-220zM444 129h113v220l-113 -57v-163z" />
    <glyph glyph-name="aring" unicode="&#xe5;" horiz-adv-x="438" 
d="M418 712h-384l114 -114h156zM418 0l-114 114h-156l-114 -114h384zM404 356l-100 64h-156l-100 -64l100 -49h156zM133 129v163l-113 57v-335zM133 434v149l-113 115v-335z" />
    <glyph glyph-name="ae" unicode="&#xe6;" horiz-adv-x="752" 
d="M432 114v200l15 -7h156l100 49l-100 64h-156l-14 -9v301l-113 -114v-187l-15 9h-156l-100 -64l100 -49h156l14 7v-314zM20 635l116 -194h130l-164 271h-82v-77zM732 635v77h-82l-164 -271h130zM20 0l115 114v178l-115 57v-349zM732 0v349l-115 -57v-178zM395 387l-19 -13
l-19 13l19 12zM397 331l-21 -11l-22 11l22 10z" />
    <glyph glyph-name="ccedilla" unicode="&#xe7;" horiz-adv-x="439" 
d="M390 356l-100 64h-156l-100 -64l100 -49h156zM355 49l-65 65h-156l-114 -114h284zM355 663l-51 49h-284l114 -114h156zM419 114v235l-115 -57v-163l65 -65zM419 363v235l-50 50l-65 -65v-149z" />
    <glyph glyph-name="egrave" unicode="&#xe8;" 
d="M433 363v349l-115 -114v-164zM433 0v349l-115 -57v-163zM133 434v164l-113 114v-349zM369 49l-65 65h-156l-64 -65l49 -49h185zM133 129v163l-113 57v-235l49 -50z" />
    <glyph glyph-name="eacute" unicode="&#xe9;" 
d="M433 363v349l-115 -114v-164zM433 0v349l-115 -57v-163zM133 434v164l-113 114v-349zM369 49l-65 65h-156l-64 -65l49 -49h185zM133 129v163l-113 57v-235l49 -50zM282 664v178h-113v-178h113z" />
    <glyph glyph-name="ecircumflex" unicode="&#xea;" 
d="M433 635v77h-82l-164 -271h130zM433 0v349l-115 -57v-178zM133 114v178l-113 57v-349zM133 434v164l-113 114v-349zM404 356l-100 64h-156l-100 -64l100 -49h156z" />
    <glyph glyph-name="edieresis" unicode="&#xeb;" 
d="M221 575l-71 137l-130 -350l142 52zM433 349l-115 -71v-193l115 -85v349zM133 278l-113 71v-349l113 85v193zM433 362l-129 350l-68 -139l58 -160zM282 712h-112l58 -113z" />
    <glyph glyph-name="igrave" unicode="&#xec;" horiz-adv-x="752" 
d="M718 712h-684l112 -114h159l71 71l69 -71h158zM433 114v178l-57 57l-58 -57v-178l58 -114zM732 0v349l-114 -57v-178zM133 114v178l-113 57v-349zM732 363v334l-114 -114v-149zM133 434v149l-113 115v-335zM432 405v178l-57 59l-57 -59v-178l58 -42z" />
    <glyph glyph-name="iacute" unicode="&#xed;" 
d="M433 0v349l-115 -57v-178zM133 114v178l-113 57v-349zM433 363v349l-115 -114v-164zM133 434v164l-113 114v-349zM404 356l-100 64h-156l-100 -64l100 -49h156z" />
    <glyph glyph-name="icircumflex" unicode="&#xee;" 
d="M433 114v235l-115 -57v-163l65 -65zM369 663l-51 49h-185l-49 -49l64 -65h156zM369 49l-65 65h-156l-64 -65l49 -49h185zM133 129v163l-113 57v-235l49 -50zM433 363v235l-50 50l-65 -65v-149zM133 434v149l-64 65l-49 -50v-235z" />
    <glyph glyph-name="idieresis" unicode="&#xef;" horiz-adv-x="455" 
d="M309 598l112 114h-386l115 -114h159zM133 116v178l-113 57v-349zM322 114l113 -114v349l-113 -57v-178zM322 434l113 -71v335l-113 -115v-149zM133 436v149l-113 115v-335z" />
    <glyph glyph-name="ntilde" unicode="&#xf1;" horiz-adv-x="438" 
d="M418 712h-285l-49 -49l64 -65h156zM418 0l-114 114h-156l-64 -65l49 -49h285zM133 420v163l-64 65l-49 -50v-235zM133 129v149l-113 71v-235l49 -50z" />
    <glyph glyph-name="ograve" unicode="&#xf2;" horiz-adv-x="454" 
d="M284 63v223l-57 64l-60 -64v-223l60 -63zM434 712h-414l78 -114h58l73 71l69 -71h56zM284 426v155l-56 65l-60 -66v-154l60 -63z" />
    <glyph glyph-name="oacute" unicode="&#xf3;" 
d="M289 116h-178l-59 -116h349zM433 0v349l-115 -57v-176zM433 363v349l-115 -114v-164zM133 434v164l-113 114v-349zM404 356l-100 64h-156l-100 -64l100 -49h156z" />
    <glyph glyph-name="ocircumflex" unicode="&#xf4;" horiz-adv-x="757" 
d="M437 108v178l-113 57v-349zM708 350l-100 64h-156l-100 -64l100 -49h156zM673 657l-51 49h-284l114 -114h156zM437 428v149l-113 115v-335zM737 357v235l-50 50l-65 -65v-149zM20 357l115 71v149l-65 65l-50 -50v-235zM49 350l100 -49h156v113h-156zM84 657l65 -65h156
v114h-170z" />
    <glyph glyph-name="otilde" unicode="&#xf5;" horiz-adv-x="457" 
d="M219 227v118h-67l-132 -228v-117h66zM437 0v112l-134 233h-65v-118l130 -227h69zM219 367v114l-130 231h-69v-113l135 -232h64zM437 593v119h-64l-134 -231v-114h64z" />
    <glyph glyph-name="odieresis" unicode="&#xf6;" horiz-adv-x="630" 
d="M433 363v349l-115 -114v-164zM133 434v164l-113 114v-349zM348 -155l262 257h-164l-98 -98v-159zM433 114v235l-115 -57v-163l65 -65zM369 49l-65 65h-156l-64 -65l49 -49h185zM133 129v163l-113 57v-235l49 -50z" />
    <glyph glyph-name="divide" unicode="&#xf7;" 
d="M433 0v349l-115 -57v-178zM433 363v349l-115 -114v-164zM133 434v164l-113 114v-349zM404 356l-100 64h-156l-100 -64l100 -49h156z" />
    <glyph glyph-name="oslash" unicode="&#xf8;" horiz-adv-x="766" 
d="M746 0l-143 114h-158l-69 -70l-70 70h-161l-63 -63l49 -51h615zM433 420v178l-57 114l-58 -114v-178l58 -57zM732 363v349l-114 -114v-178zM133 420v178l-113 114v-349zM733 350l-117 -71v-147l117 -91v309zM433 129v178l-57 42l-57 -42v-178l58 -59zM133 131v147
l-113 73v-236l48 -49z" />
    <glyph glyph-name="ugrave" unicode="&#xf9;" horiz-adv-x="939" 
d="M668 52l-65 62h-158l-69 -70l-70 70h-161l-63 -63l49 -51h486zM433 420v178l-57 114l-58 -114v-178l58 -57zM732 363v349l-114 -114v-178zM133 420v178l-113 114v-349zM654 -156l265 258h-167l-98 -99v-159zM433 129v178l-57 42l-57 -42v-178l58 -59zM733 115v235
l-117 -71v-147l65 -66zM133 131v147l-113 73v-236l48 -49z" />
    <glyph glyph-name="uacute" unicode="&#xfa;" horiz-adv-x="625" 
d="M306 712l-113 -114v-235l112 57zM20 452l262 260h-165l-97 -101v-159zM576 356l-100 49h-156l-100 -49l100 -64h156zM541 49l-65 65h-156l-114 -114h284zM305 278l-113 71v-335l113 115v149zM605 349l-115 -71v-149l65 -65l50 50v235z" />
    <glyph glyph-name="ucircumflex" unicode="&#xfb;" horiz-adv-x="688" 
d="M133 598l-113 114v-349l113 57v178zM668 0v349l-113 -57v-178zM668 363v349l-113 -114v-164zM404 356l-100 49h-156l-100 -49l100 -64h156zM369 49l-65 65h-156l-114 -114h284zM133 278l-113 71v-335l113 115v149zM433 349l-115 -71v-149l65 -65l50 50v235z" />
    <glyph glyph-name="udieresis" unicode="&#xfc;" 
d="M133 598l-113 114v-349l113 57v178zM404 356l-100 49h-156l-100 -49l100 -64h156zM369 49l-65 65h-156l-114 -114h284zM133 278l-113 71v-335l113 115v149zM433 349l-115 -71v-149l65 -65l50 50v235z" />
    <glyph glyph-name="ydieresis" unicode="&#xff;" horiz-adv-x="510" 
d="M377 114l113 -114v349l-113 -57v-178zM106 356l100 -49h156l100 49l-100 64h-156zM141 663l65 -65h156l114 114h-284zM20 0l167 113l73 173h-58l-50 24zM377 434l113 -71v335l-113 -115v-149zM77 363l115 71v149l-65 65l-50 -50v-235z" />
    <glyph glyph-name="slash" unicode="/" horiz-adv-x="587" 
d="M567 712h-101l-446 -712h102z" />
    <glyph glyph-name="backslash" unicode="\" horiz-adv-x="587" 
d="M20 712l445 -712h102l-446 712h-101z" />
    <glyph glyph-name="numbersign" unicode="#" horiz-adv-x="593" 
d="M573 414v102h-98l31 216h-100l-32 -216h-98l32 216h-101l-32 -216h-127v-102h111l-15 -101h-124v-101h109l-36 -232h103l34 232h100l-33 -232h102l32 232h116v101h-101l15 101h112zM360 414l-15 -101h-99l15 101h99z" />
    <glyph glyph-name="exclam" unicode="!" horiz-adv-x="153" 
d="M133 221v491l-113 -114v-306zM133 0v178h-113v-178h113z" />
    <glyph glyph-name="quotedbl" unicode="&#x22;" horiz-adv-x="353" 
d="M333 467v245l-113 -57v-153zM133 467v245l-113 -57v-153z" />
    <glyph glyph-name="brokenbar" unicode="&#xa6;" horiz-adv-x="162" 
d="M142 -20v790h-122v-790h122z" />
    <glyph glyph-name="minus" unicode="&#xad;" horiz-adv-x="607" 
d="M587 214v120h-567v-120h567z" />
    <glyph glyph-name="FL0401h" horiz-adv-x="438" 
d="M418 712h-384l114 -114h156zM418 0l-114 114h-156l-114 -114h384zM404 356l-100 64h-156l-100 -64l100 -49h156zM133 129v163l-113 57v-335zM133 434v149l-113 115v-335zM363 781v138h-113v-138h113zM183 781v138h-113v-138h113z" />
    <glyph glyph-name="FL0451h" horiz-adv-x="438" 
d="M418 712h-384l114 -114h156zM418 0l-114 114h-156l-114 -114h384zM404 356l-100 64h-156l-100 -64l100 -49h156zM133 129v163l-113 57v-335zM133 434v149l-113 115v-335zM363 781v138h-113v-138h113zM183 781v138h-113v-138h113z" />
    <glyph glyph-name="FL0457h" unicode="&#x457;" horiz-adv-x="333" 
d="M223 0v349l-113 -57v-178zM223 363v349l-113 -114v-164zM313 781v138h-113v-138h113zM133 781v138h-113v-138h113z" />
    <glyph glyph-name="FL0407h" unicode="&#x407;" horiz-adv-x="333" 
d="M223 0v349l-113 -57v-178zM223 363v349l-113 -114v-164zM313 781v138h-113v-138h113zM133 781v138h-113v-138h113z" />
    <glyph glyph-name="FL0456h" unicode="&#x456;" horiz-adv-x="153" 
d="M133 2v306l-113 71v-491zM133 422v178h-113v-178h113z" />
    <glyph glyph-name="FL0406h" unicode="&#x406;" horiz-adv-x="153" 
d="M133 2v306l-113 71v-491zM133 422v178h-113v-178h113z" />
    <glyph glyph-name="FL0410h" 
d="M418 712h-384l114 -114h156zM433 0v349l-115 -57v-178zM133 114v178l-113 57v-349zM404 356l-100 64h-156l-100 -64l100 -49h156zM433 363v335l-115 -115v-149zM133 434v149l-113 115v-335z" />
    <glyph glyph-name="FL0430h" 
d="M418 712h-384l114 -114h156zM433 0v349l-115 -57v-178zM133 114v178l-113 57v-349zM404 356l-100 64h-156l-100 -64l100 -49h156zM433 363v335l-115 -115v-149zM133 434v149l-113 115v-335z" />
    <glyph glyph-name="FL0412h" 
d="M404 356l-100 64h-156l-100 -64l100 -49h156zM369 663l-51 49h-284l114 -114h156zM369 49l-65 65h-156l-114 -114h284zM133 129v163l-113 57v-335zM133 434v149l-113 115v-335zM433 114v235l-115 -57v-163l65 -65zM433 363v235l-50 50l-65 -65v-149z" />
    <glyph glyph-name="FL0432h" 
d="M404 356l-100 64h-156l-100 -64l100 -49h156zM369 663l-51 49h-284l114 -114h156zM369 49l-65 65h-156l-114 -114h284zM133 129v163l-113 57v-335zM133 434v149l-113 115v-335zM433 114v235l-115 -57v-163l65 -65zM433 363v235l-50 50l-65 -65v-149z" />
    <glyph glyph-name="FL0421h" horiz-adv-x="438" 
d="M418 712h-285l-49 -49l64 -65h156zM418 0l-114 114h-156l-64 -65l49 -49h285zM133 420v163l-64 65l-49 -50v-235zM133 129v149l-113 71v-235l49 -50z" />
    <glyph glyph-name="FL0441h" horiz-adv-x="438" 
d="M418 712h-285l-49 -49l64 -65h156zM418 0l-114 114h-156l-64 -65l49 -49h285zM133 420v163l-64 65l-49 -50v-235zM133 129v149l-113 71v-235l49 -50z" />
    <glyph glyph-name="FL0415h" horiz-adv-x="438" 
d="M418 712h-384l114 -114h156zM418 0l-114 114h-156l-114 -114h384zM404 356l-100 64h-156l-100 -64l100 -49h156zM133 129v163l-113 57v-335zM133 434v149l-113 115v-335z" />
    <glyph glyph-name="FL0435h" horiz-adv-x="438" 
d="M418 712h-384l114 -114h156zM418 0l-114 114h-156l-114 -114h384zM404 356l-100 64h-156l-100 -64l100 -49h156zM133 129v163l-113 57v-335zM133 434v149l-113 115v-335z" />
    <glyph glyph-name="FL041Dh" 
d="M433 0v349l-115 -57v-178zM133 114v178l-113 57v-349zM433 363v349l-115 -114v-164zM133 434v164l-113 114v-349zM404 356l-100 64h-156l-100 -64l100 -49h156z" />
    <glyph glyph-name="FL043Dh" 
d="M433 0v349l-115 -57v-178zM133 114v178l-113 57v-349zM433 363v349l-115 -114v-164zM133 434v164l-113 114v-349zM404 356l-100 64h-156l-100 -64l100 -49h156z" />
    <glyph glyph-name="FL041Ah" 
d="M433 635v77h-82l-164 -271h130zM433 0v349l-115 -57v-178zM133 114v178l-113 57v-349zM133 434v164l-113 114v-349zM404 356l-100 64h-156l-100 -64l100 -49h156z" />
    <glyph glyph-name="FL043Ah" 
d="M433 635v77h-82l-164 -271h130zM433 0v349l-115 -57v-178zM133 114v178l-113 57v-349zM133 434v164l-113 114v-349zM404 356l-100 64h-156l-100 -64l100 -49h156z" />
    <glyph glyph-name="FL041Ch" horiz-adv-x="752" 
d="M718 712h-684l112 -114h159l71 71l69 -71h158zM433 114v178l-57 57l-58 -57v-178l58 -114zM732 0v349l-114 -57v-178zM133 114v178l-113 57v-349zM732 363v334l-114 -114v-149zM133 434v149l-113 115v-335zM432 405v178l-57 59l-57 -59v-178l58 -42z" />
    <glyph glyph-name="FL043Ch" horiz-adv-x="752" 
d="M718 712h-684l112 -114h159l71 71l69 -71h158zM433 114v178l-57 57l-58 -57v-178l58 -114zM732 0v349l-114 -57v-178zM133 114v178l-113 57v-349zM732 363v334l-114 -114v-149zM133 434v149l-113 115v-335zM432 405v178l-57 59l-57 -59v-178l58 -42z" />
    <glyph glyph-name="FL041Eh" 
d="M433 114v235l-115 -57v-163l65 -65zM369 663l-51 49h-185l-49 -49l64 -65h156zM369 49l-65 65h-156l-64 -65l49 -49h185zM133 129v163l-113 57v-235l49 -50zM433 363v235l-50 50l-65 -65v-149zM133 434v149l-64 65l-49 -50v-235z" />
    <glyph glyph-name="FL043Eh" 
d="M433 114v235l-115 -57v-163l65 -65zM369 663l-51 49h-185l-49 -49l64 -65h156zM369 49l-65 65h-156l-64 -65l49 -49h185zM133 129v163l-113 57v-235l49 -50zM433 363v235l-50 50l-65 -65v-149zM133 434v149l-64 65l-49 -50v-235z" />
    <glyph glyph-name="FL0420h" 
d="M133 114v178l-113 57v-349zM404 356l-100 64h-156l-100 -64l100 -49h156zM369 663l-51 49h-284l114 -114h156zM133 434v149l-113 115v-335zM433 363v235l-50 50l-65 -65v-149z" />
    <glyph glyph-name="FL0440h" 
d="M133 114v178l-113 57v-349zM404 356l-100 64h-156l-100 -64l100 -49h156zM369 663l-51 49h-284l114 -114h156zM133 434v149l-113 115v-335zM433 363v235l-50 50l-65 -65v-149z" />
    <glyph glyph-name="FL0422h" horiz-adv-x="454" 
d="M284 63v223l-57 64l-60 -64v-223l60 -63zM434 712h-414l78 -114h58l73 71l69 -71h56zM284 426v155l-56 65l-60 -66v-154l60 -63z" />
    <glyph glyph-name="FL0442h" horiz-adv-x="454" 
d="M284 63v223l-57 64l-60 -64v-223l60 -63zM434 712h-414l78 -114h58l73 71l69 -71h56zM284 426v155l-56 65l-60 -66v-154l60 -63z" />
    <glyph glyph-name="FL0425h" horiz-adv-x="457" 
d="M219 227v118h-67l-132 -228v-117h66zM437 0v112l-134 233h-65v-118l130 -227h69zM219 367v114l-130 231h-69v-113l135 -232h64zM437 593v119h-64l-134 -231v-114h64z" />
    <glyph glyph-name="FL0445h" horiz-adv-x="457" 
d="M219 227v118h-67l-132 -228v-117h66zM437 0v112l-134 233h-65v-118l130 -227h69zM219 367v114l-130 231h-69v-113l135 -232h64zM437 593v119h-64l-134 -231v-114h64z" />
    <glyph glyph-name="FL0411h" 
d="M404 356l-100 64h-156l-100 -64l100 -49h156zM369 49l-65 65h-156l-114 -114h284zM405 712h-371l114 -114h156zM133 129v163l-113 57v-335zM133 434v149l-113 115v-335zM433 114v235l-115 -57v-163l65 -65z" />
    <glyph glyph-name="FL0413h" horiz-adv-x="438" 
d="M418 712h-384l114 -114h156zM133 278l-113 71v-349l113 114v164zM133 583l-113 115v-335l113 57v163z" />
    <glyph glyph-name="FL0433h" horiz-adv-x="438" 
d="M418 712h-384l114 -114h156zM133 278l-113 71v-349l113 114v164zM133 583l-113 115v-335l113 57v163z" />
    <glyph glyph-name="FL0416h" horiz-adv-x="752" 
d="M432 114v200l15 -7h156l100 49l-100 64h-156l-14 -9v301l-113 -114v-187l-15 9h-156l-100 -64l100 -49h156l14 7v-314zM20 635l116 -194h130l-164 271h-82v-77zM732 635v77h-82l-164 -271h130zM20 0l115 114v178l-115 57v-349zM732 0v349l-115 -57v-178zM395 387l-19 -13
l-19 13l19 12zM397 331l-21 -11l-22 11l22 10z" />
    <glyph glyph-name="FL0436h" horiz-adv-x="752" 
d="M432 114v200l15 -7h156l100 49l-100 64h-156l-14 -9v301l-113 -114v-187l-15 9h-156l-100 -64l100 -49h156l14 7v-314zM20 635l116 -194h130l-164 271h-82v-77zM732 635v77h-82l-164 -271h130zM20 0l115 114v178l-115 57v-349zM732 0v349l-115 -57v-178zM395 387l-19 -13
l-19 13l19 12zM397 331l-21 -11l-22 11l22 10z" />
    <glyph glyph-name="FL0417h" horiz-adv-x="439" 
d="M390 356l-100 64h-156l-100 -64l100 -49h156zM355 49l-65 65h-156l-114 -114h284zM355 663l-51 49h-284l114 -114h156zM419 114v235l-115 -57v-163l65 -65zM419 363v235l-50 50l-65 -65v-149z" />
    <glyph glyph-name="FL0437h" horiz-adv-x="439" 
d="M390 356l-100 64h-156l-100 -64l100 -49h156zM355 49l-65 65h-156l-114 -114h284zM355 663l-51 49h-284l114 -114h156zM419 114v235l-115 -57v-163l65 -65zM419 363v235l-50 50l-65 -65v-149z" />
    <glyph glyph-name="FL0418h" 
d="M433 363v349l-115 -114v-164zM433 0v349l-115 -57v-163zM133 434v164l-113 114v-349zM369 49l-65 65h-156l-64 -65l49 -49h185zM133 129v163l-113 57v-235l49 -50z" />
    <glyph glyph-name="FL0438h" 
d="M433 363v349l-115 -114v-164zM433 0v349l-115 -57v-163zM133 434v164l-113 114v-349zM369 49l-65 65h-156l-64 -65l49 -49h185zM133 129v163l-113 57v-235l49 -50z" />
    <glyph glyph-name="FL0419h" 
d="M433 363v349l-115 -114v-164zM433 0v349l-115 -57v-163zM133 434v164l-113 114v-349zM369 49l-65 65h-156l-64 -65l49 -49h185zM133 129v163l-113 57v-235l49 -50zM282 664v178h-113v-178h113z" />
    <glyph glyph-name="FL0439h" 
d="M433 363v349l-115 -114v-164zM433 0v349l-115 -57v-163zM133 434v164l-113 114v-349zM369 49l-65 65h-156l-64 -65l49 -49h185zM133 129v163l-113 57v-235l49 -50zM282 664v178h-113v-178h113z" />
    <glyph glyph-name="FL041Bh" 
d="M221 575l-71 137l-130 -350l142 52zM433 349l-115 -71v-193l115 -85v349zM133 278l-113 71v-349l113 85v193zM433 362l-129 350l-68 -139l58 -160zM282 712h-112l58 -113z" />
    <glyph glyph-name="FL043Bh" 
d="M221 575l-71 137l-130 -350l142 52zM433 349l-115 -71v-193l115 -85v349zM133 278l-113 71v-349l113 85v193zM433 362l-129 350l-68 -139l58 -160zM282 712h-112l58 -113z" />
    <glyph glyph-name="FL041Fh" horiz-adv-x="455" 
d="M309 598l112 114h-386l115 -114h159zM133 116v178l-113 57v-349zM322 114l113 -114v349l-113 -57v-178zM322 434l113 -71v335l-113 -115v-149zM133 436v149l-113 115v-335z" />
    <glyph glyph-name="FL043Fh" horiz-adv-x="455" 
d="M309 598l112 114h-386l115 -114h159zM133 116v178l-113 57v-349zM322 114l113 -114v349l-113 -57v-178zM322 434l113 -71v335l-113 -115v-149zM133 436v149l-113 115v-335z" />
    <glyph glyph-name="FL0423h" 
d="M289 116h-178l-59 -116h349zM433 0v349l-115 -57v-176zM433 363v349l-115 -114v-164zM133 434v164l-113 114v-349zM404 356l-100 64h-156l-100 -64l100 -49h156z" />
    <glyph glyph-name="FL0443h" 
d="M289 116h-178l-59 -116h349zM433 0v349l-115 -57v-176zM433 363v349l-115 -114v-164zM133 434v164l-113 114v-349zM404 356l-100 64h-156l-100 -64l100 -49h156z" />
    <glyph glyph-name="FL0424h" horiz-adv-x="757" 
d="M437 108v178l-113 57v-349zM708 350l-100 64h-156l-100 -64l100 -49h156zM673 657l-51 49h-284l114 -114h156zM437 428v149l-113 115v-335zM737 357v235l-50 50l-65 -65v-149zM20 357l115 71v149l-65 65l-50 -50v-235zM49 350l100 -49h156v113h-156zM84 657l65 -65h156
v114h-170z" />
    <glyph glyph-name="FL0444h" horiz-adv-x="757" 
d="M437 108v178l-113 57v-349zM708 350l-100 64h-156l-100 -64l100 -49h156zM673 657l-51 49h-284l114 -114h156zM437 428v149l-113 115v-335zM737 357v235l-50 50l-65 -65v-149zM20 357l115 71v149l-65 65l-50 -50v-235zM49 350l100 -49h156v113h-156zM84 657l65 -65h156
v114h-170z" />
    <glyph glyph-name="FL0426h" horiz-adv-x="630" 
d="M433 363v349l-115 -114v-164zM133 434v164l-113 114v-349zM348 -155l262 257h-164l-98 -98v-159zM433 114v235l-115 -57v-163l65 -65zM369 49l-65 65h-156l-64 -65l49 -49h185zM133 129v163l-113 57v-235l49 -50z" />
    <glyph glyph-name="FL0446h" horiz-adv-x="630" 
d="M433 363v349l-115 -114v-164zM133 434v164l-113 114v-349zM348 -155l262 257h-164l-98 -98v-159zM433 114v235l-115 -57v-163l65 -65zM369 49l-65 65h-156l-64 -65l49 -49h185zM133 129v163l-113 57v-235l49 -50z" />
    <glyph glyph-name="FL0427h" 
d="M433 0v349l-115 -57v-178zM433 363v349l-115 -114v-164zM133 434v164l-113 114v-349zM404 356l-100 64h-156l-100 -64l100 -49h156z" />
    <glyph glyph-name="FL0447h" 
d="M433 0v349l-115 -57v-178zM433 363v349l-115 -114v-164zM133 434v164l-113 114v-349zM404 356l-100 64h-156l-100 -64l100 -49h156z" />
    <glyph glyph-name="FL0428h" horiz-adv-x="766" 
d="M746 0l-143 114h-158l-69 -70l-70 70h-161l-63 -63l49 -51h615zM433 420v178l-57 114l-58 -114v-178l58 -57zM732 363v349l-114 -114v-178zM133 420v178l-113 114v-349zM733 350l-117 -71v-147l117 -91v309zM433 129v178l-57 42l-57 -42v-178l58 -59zM133 131v147
l-113 73v-236l48 -49z" />
    <glyph glyph-name="FL0448h" horiz-adv-x="766" 
d="M746 0l-143 114h-158l-69 -70l-70 70h-161l-63 -63l49 -51h615zM433 420v178l-57 114l-58 -114v-178l58 -57zM732 363v349l-114 -114v-178zM133 420v178l-113 114v-349zM733 350l-117 -71v-147l117 -91v309zM433 129v178l-57 42l-57 -42v-178l58 -59zM133 131v147
l-113 73v-236l48 -49z" />
    <glyph glyph-name="FL0429h" horiz-adv-x="939" 
d="M668 52l-65 62h-158l-69 -70l-70 70h-161l-63 -63l49 -51h486zM433 420v178l-57 114l-58 -114v-178l58 -57zM732 363v349l-114 -114v-178zM133 420v178l-113 114v-349zM654 -156l265 258h-167l-98 -99v-159zM433 129v178l-57 42l-57 -42v-178l58 -59zM733 115v235
l-117 -71v-147l65 -66zM133 131v147l-113 73v-236l48 -49z" />
    <glyph glyph-name="FL0449h" horiz-adv-x="939" 
d="M668 52l-65 62h-158l-69 -70l-70 70h-161l-63 -63l49 -51h486zM433 420v178l-57 114l-58 -114v-178l58 -57zM732 363v349l-114 -114v-178zM133 420v178l-113 114v-349zM654 -156l265 258h-167l-98 -99v-159zM433 129v178l-57 42l-57 -42v-178l58 -59zM733 115v235
l-117 -71v-147l65 -66zM133 131v147l-113 73v-236l48 -49z" />
    <glyph glyph-name="FL042Dh" horiz-adv-x="439" 
d="M390 356l-100 64h-156l-100 -64l100 -49h156zM355 49l-65 65h-270l114 -114h170zM355 663l-51 49h-170l-114 -115h270zM419 114v235l-115 -57v-163l65 -65zM419 363v235l-50 50l-65 -65v-149z" />
    <glyph glyph-name="FL044Dh" horiz-adv-x="439" 
d="M390 356l-100 64h-156l-100 -64l100 -49h156zM355 49l-65 65h-270l114 -114h170zM355 663l-51 49h-170l-114 -115h270zM419 114v235l-115 -57v-163l65 -65zM419 363v235l-50 50l-65 -65v-149z" />
    <glyph glyph-name="FL042Eh" horiz-adv-x="763" 
d="M133 114v178l-113 57v-349zM133 434v149l-113 115v-335zM743 114v235l-115 -57v-163l65 -65zM679 663l-51 49h-185l-49 -49l64 -65h156zM679 49l-65 65h-156l-64 -65l49 -49h185zM443 129v163l-113 57v-235l49 -50zM743 363v235l-50 50l-65 -65v-149zM443 434v149l-64 65
l-49 -50v-235zM304 420h-156l-100 -64l100 -49h156v113z" />
    <glyph glyph-name="FL044Eh" horiz-adv-x="763" 
d="M133 114v178l-113 57v-349zM133 434v149l-113 115v-335zM743 114v235l-115 -57v-163l65 -65zM679 663l-51 49h-185l-49 -49l64 -65h156zM679 49l-65 65h-156l-64 -65l49 -49h185zM443 129v163l-113 57v-235l49 -50zM743 363v235l-50 50l-65 -65v-149zM443 434v149l-64 65
l-49 -50v-235zM304 420h-156l-100 -64l100 -49h156v113z" />
    <glyph glyph-name="FL042Fh" horiz-adv-x="510" 
d="M377 114l113 -114v349l-113 -57v-178zM106 356l100 -49h156l100 49l-100 64h-156zM141 663l65 -65h156l114 114h-284zM20 0l167 113l73 173h-58l-50 24zM377 434l113 -71v335l-113 -115v-149zM77 363l115 71v149l-65 65l-50 -50v-235z" />
    <glyph glyph-name="FL044Fh" horiz-adv-x="510" 
d="M377 114l113 -114v349l-113 -57v-178zM106 356l100 -49h156l100 49l-100 64h-156zM141 663l65 -65h156l114 114h-284zM20 0l167 113l73 173h-58l-50 24zM377 434l113 -71v335l-113 -115v-149zM77 363l115 71v149l-65 65l-50 -50v-235z" />
    <glyph glyph-name="FL042Ch" 
d="M133 598l-113 114v-349l113 57v178zM404 356l-100 49h-156l-100 -49l100 -64h156zM369 49l-65 65h-156l-114 -114h284zM133 278l-113 71v-335l113 115v149zM433 349l-115 -71v-149l65 -65l50 50v235z" />
    <glyph glyph-name="FL044Ch" 
d="M133 598l-113 114v-349l113 57v178zM404 356l-100 49h-156l-100 -49l100 -64h156zM369 49l-65 65h-156l-114 -114h284zM133 278l-113 71v-335l113 115v149zM433 349l-115 -71v-149l65 -65l50 50v235z" />
    <glyph glyph-name="FL042Bh" horiz-adv-x="688" 
d="M133 598l-113 114v-349l113 57v178zM668 0v349l-113 -57v-178zM668 363v349l-113 -114v-164zM404 356l-100 49h-156l-100 -49l100 -64h156zM369 49l-65 65h-156l-114 -114h284zM133 278l-113 71v-335l113 115v149zM433 349l-115 -71v-149l65 -65l50 50v235z" />
    <glyph glyph-name="FL044Bh" horiz-adv-x="688" 
d="M133 598l-113 114v-349l113 57v178zM668 0v349l-113 -57v-178zM668 363v349l-113 -114v-164zM404 356l-100 49h-156l-100 -49l100 -64h156zM369 49l-65 65h-156l-114 -114h284zM133 278l-113 71v-335l113 115v149zM433 349l-115 -71v-149l65 -65l50 50v235z" />
    <glyph glyph-name="FL042Ah" horiz-adv-x="625" 
d="M306 712l-113 -114v-235l112 57zM20 452l262 260h-165l-97 -101v-159zM576 356l-100 49h-156l-100 -49l100 -64h156zM541 49l-65 65h-156l-114 -114h284zM305 278l-113 71v-335l113 115v149zM605 349l-115 -71v-149l65 -65l50 50v235z" />
    <glyph glyph-name="FL044Ah" horiz-adv-x="625" 
d="M306 712l-113 -114v-235l112 57zM20 452l262 260h-165l-97 -101v-159zM576 356l-100 49h-156l-100 -49l100 -64h156zM541 49l-65 65h-156l-114 -114h284zM305 278l-113 71v-335l113 115v149zM605 349l-115 -71v-149l65 -65l50 50v235z" />
    <glyph glyph-name="FL0414h" horiz-adv-x="695" 
d="M144 115l-124 -115h655l-114 114zM208 663l65 -65h156l114 114h-284zM444 434l113 -71v335l-113 -115v-149zM144 363l115 71v149l-65 65l-50 -50v-235zM144 129h115v163l-115 57v-220zM444 129h113v220l-113 -57v-163z" />
    <glyph glyph-name="FL0434h" horiz-adv-x="695" 
d="M144 115l-124 -115h655l-114 114zM208 663l65 -65h156l114 114h-284zM444 434l113 -71v335l-113 -115v-149zM144 363l115 71v149l-65 65l-50 -50v-235zM144 129h115v163l-115 57v-220zM444 129h112v220l-112 -57v-163z" />
    <glyph glyph-name="FL0431h" 
d="M404 356l-100 64h-156l-100 -64l100 -49h156zM369 49l-65 65h-156l-114 -114h284zM405 712h-371l114 -114h156zM133 129v163l-113 57v-335zM133 434v149l-113 115v-335zM433 114v235l-115 -57v-163l65 -65z" />
    <glyph glyph-name="FL045Ch" unicode="&#x45c;" horiz-adv-x="438" 
d="M418 532h-285l-49 -49l64 -65h156zM418 0l-114 114h-156l-64 -65l49 -49h285zM133 129v69l-113 71v-155l49 -50zM133 340v63l-64 65l-49 -50v-135zM291 -99v69h-113v-84l49 -50zM291 562v43l-64 65l-49 -50v-58h113z" />
    <glyph glyph-name="FL00D0h" 
d="M133 114v178l-113 57v-349zM404 356l-100 64h-156l-100 -64l100 -49h156zM369 663l-51 49h-284l114 -114h156zM133 434v149l-113 115v-335zM433 363v235l-50 50l-65 -65v-149z" />
    <glyph glyph-name="FL00D7h" 
d="M433 0v349l-115 -57v-178zM433 363v349l-115 -114v-164zM133 434v164l-113 114v-349zM404 356l-100 64h-156l-100 -64l100 -49h156z" />
    <glyph glyph-name="FL00DDh" horiz-adv-x="439" 
d="M390 356l-100 64h-156l-100 -64l100 -49h156zM355 49l-65 65h-270l114 -114h170zM355 663l-51 49h-170l-114 -115h270zM419 114v235l-115 -57v-163l65 -65zM419 363v235l-50 50l-65 -65v-149z" />
    <glyph glyph-name="FL00DEh" horiz-adv-x="763" 
d="M133 114v178l-113 57v-349zM133 434v149l-113 115v-335zM743 114v235l-115 -57v-163l65 -65zM679 663l-51 49h-185l-49 -49l64 -65h156zM679 49l-65 65h-156l-64 -65l49 -49h185zM443 129v163l-113 57v-235l49 -50zM743 363v235l-50 50l-65 -65v-149zM443 434v149l-64 65
l-49 -50v-235zM304 420h-156l-100 -64l100 -49h156v113z" />
    <glyph glyph-name="FL00F0h" 
d="M133 114v178l-113 57v-349zM404 356l-100 64h-156l-100 -64l100 -49h156zM369 663l-51 49h-284l114 -114h156zM133 434v149l-113 115v-335zM433 363v235l-50 50l-65 -65v-149z" />
    <glyph glyph-name="FL00FDh" horiz-adv-x="439" 
d="M390 356l-100 64h-156l-100 -64l100 -49h156zM355 49l-65 65h-270l114 -114h170zM355 663l-51 49h-170l-114 -115h270zM419 114v235l-115 -57v-163l65 -65zM419 363v235l-50 50l-65 -65v-149z" />
    <glyph glyph-name="FL00FEh" horiz-adv-x="763" 
d="M133 114v178l-113 57v-349zM133 434v149l-113 115v-335zM743 114v235l-115 -57v-163l65 -65zM679 663l-51 49h-185l-49 -49l64 -65h156zM679 49l-65 65h-156l-64 -65l49 -49h185zM443 129v163l-113 57v-235l49 -50zM743 363v235l-50 50l-65 -65v-149zM443 434v149l-64 65
l-49 -50v-235zM304 420h-156l-100 -64l100 -49h156v113z" />
    <glyph glyph-name="afii10017" unicode="&#x410;" 
d="M418 712h-384l114 -114h156zM433 0v349l-115 -57v-178zM133 114v178l-113 57v-349zM404 356l-100 64h-156l-100 -64l100 -49h156zM433 363v335l-115 -115v-149zM133 434v149l-113 115v-335z" />
    <glyph glyph-name="afii10018" unicode="&#x411;" 
d="M404 356l-100 64h-156l-100 -64l100 -49h156zM369 49l-65 65h-156l-114 -114h284zM405 712h-371l114 -114h156zM133 129v163l-113 57v-335zM133 434v149l-113 115v-335zM433 114v235l-115 -57v-163l65 -65z" />
    <glyph glyph-name="afii10019" unicode="&#x412;" 
d="M404 356l-100 64h-156l-100 -64l100 -49h156zM369 663l-51 49h-284l114 -114h156zM369 49l-65 65h-156l-114 -114h284zM133 129v163l-113 57v-335zM133 434v149l-113 115v-335zM433 114v235l-115 -57v-163l65 -65zM433 363v235l-50 50l-65 -65v-149z" />
    <glyph glyph-name="afii10020" unicode="&#x413;" horiz-adv-x="438" 
d="M418 712h-384l114 -114h156zM133 278l-113 71v-349l113 114v164zM133 583l-113 115v-335l113 57v163z" />
    <glyph glyph-name="afii10021" unicode="&#x414;" horiz-adv-x="695" 
d="M144 115l-124 -115h655l-114 114zM208 663l65 -65h156l114 114h-284zM444 434l113 -71v335l-113 -115v-149zM144 363l115 71v149l-65 65l-50 -50v-235zM144 129h115v163l-115 57v-220zM444 129h113v220l-113 -57v-163z" />
    <glyph glyph-name="afii10022" unicode="&#x415;" horiz-adv-x="438" 
d="M418 712h-384l114 -114h156zM418 0l-114 114h-156l-114 -114h384zM404 356l-100 64h-156l-100 -64l100 -49h156zM133 129v163l-113 57v-335zM133 434v149l-113 115v-335z" />
    <glyph glyph-name="afii10024" unicode="&#x416;" horiz-adv-x="752" 
d="M432 114v200l15 -7h156l100 49l-100 64h-156l-14 -9v301l-113 -114v-187l-15 9h-156l-100 -64l100 -49h156l14 7v-314zM20 635l116 -194h130l-164 271h-82v-77zM732 635v77h-82l-164 -271h130zM20 0l115 114v178l-115 57v-349zM732 0v349l-115 -57v-178zM395 387l-19 -13
l-19 13l19 12zM397 331l-21 -11l-22 11l22 10z" />
    <glyph glyph-name="afii10025" unicode="&#x417;" horiz-adv-x="439" 
d="M390 356l-100 64h-156l-100 -64l100 -49h156zM355 49l-65 65h-156l-114 -114h284zM355 663l-51 49h-284l114 -114h156zM419 114v235l-115 -57v-163l65 -65zM419 363v235l-50 50l-65 -65v-149z" />
    <glyph glyph-name="afii10026" unicode="&#x418;" 
d="M433 363v349l-115 -114v-164zM433 0v349l-115 -57v-163zM133 434v164l-113 114v-349zM369 49l-65 65h-156l-64 -65l49 -49h185zM133 129v163l-113 57v-235l49 -50z" />
    <glyph glyph-name="afii10027" unicode="&#x419;" 
d="M433 363v349l-115 -114v-164zM433 0v349l-115 -57v-163zM133 434v164l-113 114v-349zM369 49l-65 65h-156l-64 -65l49 -49h185zM133 129v163l-113 57v-235l49 -50zM282 664v178h-113v-178h113z" />
    <glyph glyph-name="afii10028" unicode="&#x41a;" 
d="M433 635v77h-82l-164 -271h130zM433 0v349l-115 -57v-178zM133 114v178l-113 57v-349zM133 434v164l-113 114v-349zM404 356l-100 64h-156l-100 -64l100 -49h156z" />
    <glyph glyph-name="afii10029" unicode="&#x41b;" 
d="M221 575l-71 137l-130 -350l142 52zM433 349l-115 -71v-193l115 -85v349zM133 278l-113 71v-349l113 85v193zM433 362l-129 350l-68 -139l58 -160zM282 712h-112l58 -113z" />
    <glyph glyph-name="afii10030" unicode="&#x41c;" horiz-adv-x="752" 
d="M718 712h-684l112 -114h159l71 71l69 -71h158zM433 114v178l-57 57l-58 -57v-178l58 -114zM732 0v349l-114 -57v-178zM133 114v178l-113 57v-349zM732 363v334l-114 -114v-149zM133 434v149l-113 115v-335zM432 405v178l-57 59l-57 -59v-178l58 -42z" />
    <glyph glyph-name="afii10031" unicode="&#x41d;" 
d="M433 0v349l-115 -57v-178zM133 114v178l-113 57v-349zM433 363v349l-115 -114v-164zM133 434v164l-113 114v-349zM404 356l-100 64h-156l-100 -64l100 -49h156z" />
    <glyph glyph-name="afii10032" unicode="&#x41e;" 
d="M433 114v235l-115 -57v-163l65 -65zM369 663l-51 49h-185l-49 -49l64 -65h156zM369 49l-65 65h-156l-64 -65l49 -49h185zM133 129v163l-113 57v-235l49 -50zM433 363v235l-50 50l-65 -65v-149zM133 434v149l-64 65l-49 -50v-235z" />
    <glyph glyph-name="afii10033" unicode="&#x41f;" horiz-adv-x="455" 
d="M309 598l112 114h-386l115 -114h159zM133 116v178l-113 57v-349zM322 114l113 -114v349l-113 -57v-178zM322 434l113 -71v335l-113 -115v-149zM133 436v149l-113 115v-335z" />
    <glyph glyph-name="afii10034" unicode="&#x420;" 
d="M133 114v178l-113 57v-349zM404 356l-100 64h-156l-100 -64l100 -49h156zM369 663l-51 49h-284l114 -114h156zM133 434v149l-113 115v-335zM433 363v235l-50 50l-65 -65v-149z" />
    <glyph glyph-name="afii10035" unicode="&#x421;" horiz-adv-x="438" 
d="M418 712h-285l-49 -49l64 -65h156zM418 0l-114 114h-156l-64 -65l49 -49h285zM133 420v163l-64 65l-49 -50v-235zM133 129v149l-113 71v-235l49 -50z" />
    <glyph glyph-name="afii10036" unicode="&#x422;" horiz-adv-x="454" 
d="M284 63v223l-57 64l-60 -64v-223l60 -63zM434 712h-414l78 -114h58l73 71l69 -71h56zM284 426v155l-56 65l-60 -66v-154l60 -63z" />
    <glyph glyph-name="afii10037" unicode="&#x423;" 
d="M289 116h-178l-59 -116h349zM433 0v349l-115 -57v-176zM433 363v349l-115 -114v-164zM133 434v164l-113 114v-349zM404 356l-100 64h-156l-100 -64l100 -49h156z" />
    <glyph glyph-name="afii10038" unicode="&#x424;" horiz-adv-x="757" 
d="M437 108v178l-113 57v-349zM708 350l-100 64h-156l-100 -64l100 -49h156zM673 657l-51 49h-284l114 -114h156zM437 428v149l-113 115v-335zM737 357v235l-50 50l-65 -65v-149zM20 357l115 71v149l-65 65l-50 -50v-235zM49 350l100 -49h156v113h-156zM84 657l65 -65h156
v114h-170z" />
    <glyph glyph-name="afii10039" unicode="&#x425;" horiz-adv-x="457" 
d="M219 227v118h-67l-132 -228v-117h66zM437 0v112l-134 233h-65v-118l130 -227h69zM219 367v114l-130 231h-69v-113l135 -232h64zM437 593v119h-64l-134 -231v-114h64z" />
    <glyph glyph-name="afii10040" unicode="&#x426;" horiz-adv-x="630" 
d="M433 363v349l-115 -114v-164zM133 434v164l-113 114v-349zM348 -155l262 257h-164l-98 -98v-159zM433 114v235l-115 -57v-163l65 -65zM369 49l-65 65h-156l-64 -65l49 -49h185zM133 129v163l-113 57v-235l49 -50z" />
    <glyph glyph-name="afii10041" unicode="&#x427;" 
d="M433 0v349l-115 -57v-178zM433 363v349l-115 -114v-164zM133 434v164l-113 114v-349zM404 356l-100 64h-156l-100 -64l100 -49h156z" />
    <glyph glyph-name="afii10042" unicode="&#x428;" horiz-adv-x="766" 
d="M746 0l-143 114h-158l-69 -70l-70 70h-161l-63 -63l49 -51h615zM433 420v178l-57 114l-58 -114v-178l58 -57zM732 363v349l-114 -114v-178zM133 420v178l-113 114v-349zM733 350l-117 -71v-147l117 -91v309zM433 129v178l-57 42l-57 -42v-178l58 -59zM133 131v147
l-113 73v-236l48 -49z" />
    <glyph glyph-name="afii10043" unicode="&#x429;" horiz-adv-x="939" 
d="M668 52l-65 62h-158l-69 -70l-70 70h-161l-63 -63l49 -51h486zM433 420v178l-57 114l-58 -114v-178l58 -57zM732 363v349l-114 -114v-178zM133 420v178l-113 114v-349zM654 -156l265 258h-167l-98 -99v-159zM433 129v178l-57 42l-57 -42v-178l58 -59zM733 115v235
l-117 -71v-147l65 -66zM133 131v147l-113 73v-236l48 -49z" />
    <glyph glyph-name="afii10044" unicode="&#x42a;" horiz-adv-x="625" 
d="M306 712l-113 -114v-235l112 57zM20 452l262 260h-165l-97 -101v-159zM576 356l-100 49h-156l-100 -49l100 -64h156zM541 49l-65 65h-156l-114 -114h284zM305 278l-113 71v-335l113 115v149zM605 349l-115 -71v-149l65 -65l50 50v235z" />
    <glyph glyph-name="afii10045" unicode="&#x42b;" horiz-adv-x="688" 
d="M133 598l-113 114v-349l113 57v178zM668 0v349l-113 -57v-178zM668 363v349l-113 -114v-164zM404 356l-100 49h-156l-100 -49l100 -64h156zM369 49l-65 65h-156l-114 -114h284zM133 278l-113 71v-335l113 115v149zM433 349l-115 -71v-149l65 -65l50 50v235z" />
    <glyph glyph-name="afii10046" unicode="&#x42c;" 
d="M133 598l-113 114v-349l113 57v178zM404 356l-100 49h-156l-100 -49l100 -64h156zM369 49l-65 65h-156l-114 -114h284zM133 278l-113 71v-335l113 115v149zM433 349l-115 -71v-149l65 -65l50 50v235z" />
    <glyph glyph-name="afii10047" unicode="&#x42d;" horiz-adv-x="439" 
d="M390 356l-100 64h-156l-100 -64l100 -49h156zM355 49l-65 65h-270l114 -114h170zM355 663l-51 49h-170l-114 -115h270zM419 114v235l-115 -57v-163l65 -65zM419 363v235l-50 50l-65 -65v-149z" />
    <glyph glyph-name="afii10048" unicode="&#x42e;" horiz-adv-x="763" 
d="M133 114v178l-113 57v-349zM133 434v149l-113 115v-335zM743 114v235l-115 -57v-163l65 -65zM679 663l-51 49h-185l-49 -49l64 -65h156zM679 49l-65 65h-156l-64 -65l49 -49h185zM443 129v163l-113 57v-235l49 -50zM743 363v235l-50 50l-65 -65v-149zM443 434v149l-64 65
l-49 -50v-235zM304 420h-156l-100 -64l100 -49h156v113z" />
    <glyph glyph-name="afii10049" unicode="&#x42f;" horiz-adv-x="510" 
d="M377 114l113 -114v349l-113 -57v-178zM106 356l100 -49h156l100 49l-100 64h-156zM141 663l65 -65h156l114 114h-284zM20 0l167 113l73 173h-58l-50 24zM377 434l113 -71v335l-113 -115v-149zM77 363l115 71v149l-65 65l-50 -50v-235z" />
    <glyph glyph-name="afii10065" unicode="&#x430;" 
d="M418 712h-384l114 -114h156zM433 0v349l-115 -57v-178zM133 114v178l-113 57v-349zM404 356l-100 64h-156l-100 -64l100 -49h156zM433 363v335l-115 -115v-149zM133 434v149l-113 115v-335z" />
    <glyph glyph-name="afii10066" unicode="&#x431;" 
d="M404 356l-100 64h-156l-100 -64l100 -49h156zM369 49l-65 65h-156l-114 -114h284zM405 712h-371l114 -114h156zM133 129v163l-113 57v-335zM133 434v149l-113 115v-335zM433 114v235l-115 -57v-163l65 -65z" />
    <glyph glyph-name="afii10067" unicode="&#x432;" 
d="M404 356l-100 64h-156l-100 -64l100 -49h156zM369 663l-51 49h-284l114 -114h156zM369 49l-65 65h-156l-114 -114h284zM133 129v163l-113 57v-335zM133 434v149l-113 115v-335zM433 114v235l-115 -57v-163l65 -65zM433 363v235l-50 50l-65 -65v-149z" />
    <glyph glyph-name="afii10068" unicode="&#x433;" horiz-adv-x="438" 
d="M418 712h-384l114 -114h156zM133 278l-113 71v-349l113 114v164zM133 583l-113 115v-335l113 57v163z" />
    <glyph glyph-name="afii10069" unicode="&#x434;" horiz-adv-x="695" 
d="M144 115l-124 -115h655l-114 114zM208 663l65 -65h156l114 114h-284zM444 434l113 -71v335l-113 -115v-149zM144 363l115 71v149l-65 65l-50 -50v-235zM144 129h115v163l-115 57v-220zM444 129h113v220l-113 -57v-163z" />
    <glyph glyph-name="afii10070" unicode="&#x435;" horiz-adv-x="438" 
d="M418 712h-384l114 -114h156zM418 0l-114 114h-156l-114 -114h384zM404 356l-100 64h-156l-100 -64l100 -49h156zM133 129v163l-113 57v-335zM133 434v149l-113 115v-335z" />
    <glyph glyph-name="afii10072" unicode="&#x436;" horiz-adv-x="752" 
d="M432 114v200l15 -7h156l100 49l-100 64h-156l-14 -9v301l-113 -114v-187l-15 9h-156l-100 -64l100 -49h156l14 7v-314zM20 635l116 -194h130l-164 271h-82v-77zM732 635v77h-82l-164 -271h130zM20 0l115 114v178l-115 57v-349zM732 0v349l-115 -57v-178zM395 387l-19 -13
l-19 13l19 12zM397 331l-21 -11l-22 11l22 10z" />
    <glyph glyph-name="afii10073" unicode="&#x437;" horiz-adv-x="439" 
d="M390 356l-100 64h-156l-100 -64l100 -49h156zM355 49l-65 65h-156l-114 -114h284zM355 663l-51 49h-284l114 -114h156zM419 114v235l-115 -57v-163l65 -65zM419 363v235l-50 50l-65 -65v-149z" />
    <glyph glyph-name="afii10074" unicode="&#x438;" 
d="M433 363v349l-115 -114v-164zM433 0v349l-115 -57v-163zM133 434v164l-113 114v-349zM369 49l-65 65h-156l-64 -65l49 -49h185zM133 129v163l-113 57v-235l49 -50z" />
    <glyph glyph-name="afii10075" unicode="&#x439;" 
d="M433 363v349l-115 -114v-164zM433 0v349l-115 -57v-163zM133 434v164l-113 114v-349zM369 49l-65 65h-156l-64 -65l49 -49h185zM133 129v163l-113 57v-235l49 -50zM282 664v178h-113v-178h113z" />
    <glyph glyph-name="afii10076" unicode="&#x43a;" 
d="M433 635v77h-82l-164 -271h130zM433 0v349l-115 -57v-178zM133 114v178l-113 57v-349zM133 434v164l-113 114v-349zM404 356l-100 64h-156l-100 -64l100 -49h156z" />
    <glyph glyph-name="afii10077" unicode="&#x43b;" 
d="M221 575l-71 137l-130 -350l142 52zM433 349l-115 -71v-193l115 -85v349zM133 278l-113 71v-349l113 85v193zM433 362l-129 350l-68 -139l58 -160zM282 712h-112l58 -113z" />
    <glyph glyph-name="afii10078" unicode="&#x43c;" horiz-adv-x="752" 
d="M718 712h-684l112 -114h159l71 71l69 -71h158zM433 114v178l-57 57l-58 -57v-178l58 -114zM732 0v349l-114 -57v-178zM133 114v178l-113 57v-349zM732 363v334l-114 -114v-149zM133 434v149l-113 115v-335zM432 405v178l-57 59l-57 -59v-178l58 -42z" />
    <glyph glyph-name="afii10079" unicode="&#x43d;" 
d="M433 0v349l-115 -57v-178zM133 114v178l-113 57v-349zM433 363v349l-115 -114v-164zM133 434v164l-113 114v-349zM404 356l-100 64h-156l-100 -64l100 -49h156z" />
    <glyph glyph-name="afii10080" unicode="&#x43e;" 
d="M433 114v235l-115 -57v-163l65 -65zM369 663l-51 49h-185l-49 -49l64 -65h156zM369 49l-65 65h-156l-64 -65l49 -49h185zM133 129v163l-113 57v-235l49 -50zM433 363v235l-50 50l-65 -65v-149zM133 434v149l-64 65l-49 -50v-235z" />
    <glyph glyph-name="afii10081" unicode="&#x43f;" horiz-adv-x="455" 
d="M309 598l112 114h-386l115 -114h159zM133 116v178l-113 57v-349zM322 114l113 -114v349l-113 -57v-178zM322 434l113 -71v335l-113 -115v-149zM133 436v149l-113 115v-335z" />
    <glyph glyph-name="afii10082" unicode="&#x440;" 
d="M133 114v178l-113 57v-349zM404 356l-100 64h-156l-100 -64l100 -49h156zM369 663l-51 49h-284l114 -114h156zM133 434v149l-113 115v-335zM433 363v235l-50 50l-65 -65v-149z" />
    <glyph glyph-name="afii10083" unicode="&#x441;" horiz-adv-x="438" 
d="M418 712h-285l-49 -49l64 -65h156zM418 0l-114 114h-156l-64 -65l49 -49h285zM133 420v163l-64 65l-49 -50v-235zM133 129v149l-113 71v-235l49 -50z" />
    <glyph glyph-name="afii10084" unicode="&#x442;" horiz-adv-x="454" 
d="M284 63v223l-57 64l-60 -64v-223l60 -63zM434 712h-414l78 -114h58l73 71l69 -71h56zM284 426v155l-56 65l-60 -66v-154l60 -63z" />
    <glyph glyph-name="afii10085" unicode="&#x443;" 
d="M289 116h-178l-59 -116h349zM433 0v349l-115 -57v-176zM433 363v349l-115 -114v-164zM133 434v164l-113 114v-349zM404 356l-100 64h-156l-100 -64l100 -49h156z" />
    <glyph glyph-name="afii10086" unicode="&#x444;" horiz-adv-x="757" 
d="M437 108v178l-113 57v-349zM708 350l-100 64h-156l-100 -64l100 -49h156zM673 657l-51 49h-284l114 -114h156zM437 428v149l-113 115v-335zM737 357v235l-50 50l-65 -65v-149zM20 357l115 71v149l-65 65l-50 -50v-235zM49 350l100 -49h156v113h-156zM84 657l65 -65h156
v114h-170z" />
    <glyph glyph-name="afii10087" unicode="&#x445;" horiz-adv-x="457" 
d="M219 227v118h-67l-132 -228v-117h66zM437 0v112l-134 233h-65v-118l130 -227h69zM219 367v114l-130 231h-69v-113l135 -232h64zM437 593v119h-64l-134 -231v-114h64z" />
    <glyph glyph-name="afii10088" unicode="&#x446;" horiz-adv-x="630" 
d="M433 363v349l-115 -114v-164zM133 434v164l-113 114v-349zM348 -155l262 257h-164l-98 -98v-159zM433 114v235l-115 -57v-163l65 -65zM369 49l-65 65h-156l-64 -65l49 -49h185zM133 129v163l-113 57v-235l49 -50z" />
    <glyph glyph-name="afii10089" unicode="&#x447;" 
d="M433 0v349l-115 -57v-178zM433 363v349l-115 -114v-164zM133 434v164l-113 114v-349zM404 356l-100 64h-156l-100 -64l100 -49h156z" />
    <glyph glyph-name="afii10090" unicode="&#x448;" horiz-adv-x="766" 
d="M746 0l-143 114h-158l-69 -70l-70 70h-161l-63 -63l49 -51h615zM433 420v178l-57 114l-58 -114v-178l58 -57zM732 363v349l-114 -114v-178zM133 420v178l-113 114v-349zM733 350l-117 -71v-147l117 -91v309zM433 129v178l-57 42l-57 -42v-178l58 -59zM133 131v147
l-113 73v-236l48 -49z" />
    <glyph glyph-name="afii10091" unicode="&#x449;" horiz-adv-x="939" 
d="M668 52l-65 62h-158l-69 -70l-70 70h-161l-63 -63l49 -51h486zM433 420v178l-57 114l-58 -114v-178l58 -57zM732 363v349l-114 -114v-178zM133 420v178l-113 114v-349zM654 -156l265 258h-167l-98 -99v-159zM433 129v178l-57 42l-57 -42v-178l58 -59zM733 115v235
l-117 -71v-147l65 -66zM133 131v147l-113 73v-236l48 -49z" />
    <glyph glyph-name="afii10092" unicode="&#x44a;" horiz-adv-x="625" 
d="M306 712l-113 -114v-235l112 57zM20 452l262 260h-165l-97 -101v-159zM576 356l-100 49h-156l-100 -49l100 -64h156zM541 49l-65 65h-156l-114 -114h284zM305 278l-113 71v-335l113 115v149zM605 349l-115 -71v-149l65 -65l50 50v235z" />
    <glyph glyph-name="afii10093" unicode="&#x44b;" horiz-adv-x="688" 
d="M133 598l-113 114v-349l113 57v178zM668 0v349l-113 -57v-178zM668 363v349l-113 -114v-164zM404 356l-100 49h-156l-100 -49l100 -64h156zM369 49l-65 65h-156l-114 -114h284zM133 278l-113 71v-335l113 115v149zM433 349l-115 -71v-149l65 -65l50 50v235z" />
    <glyph glyph-name="afii10094" unicode="&#x44c;" 
d="M133 598l-113 114v-349l113 57v178zM404 356l-100 49h-156l-100 -49l100 -64h156zM369 49l-65 65h-156l-114 -114h284zM133 278l-113 71v-335l113 115v149zM433 349l-115 -71v-149l65 -65l50 50v235z" />
    <glyph glyph-name="afii10095" unicode="&#x44d;" horiz-adv-x="439" 
d="M390 356l-100 64h-156l-100 -64l100 -49h156zM355 49l-65 65h-270l114 -114h170zM355 663l-51 49h-170l-114 -115h270zM419 114v235l-115 -57v-163l65 -65zM419 363v235l-50 50l-65 -65v-149z" />
    <glyph glyph-name="afii10096" unicode="&#x44e;" horiz-adv-x="763" 
d="M133 114v178l-113 57v-349zM133 434v149l-113 115v-335zM743 114v235l-115 -57v-163l65 -65zM679 663l-51 49h-185l-49 -49l64 -65h156zM679 49l-65 65h-156l-64 -65l49 -49h185zM443 129v163l-113 57v-235l49 -50zM743 363v235l-50 50l-65 -65v-149zM443 434v149l-64 65
l-49 -50v-235zM304 420h-156l-100 -64l100 -49h156v113z" />
    <glyph glyph-name="afii10097" unicode="&#x44f;" horiz-adv-x="510" 
d="M377 114l113 -114v349l-113 -57v-178zM106 356l100 -49h156l100 49l-100 64h-156zM141 663l65 -65h156l114 114h-284zM20 0l167 113l73 173h-58l-50 24zM377 434l113 -71v335l-113 -115v-149zM77 363l115 71v149l-65 65l-50 -50v-235z" />
    <glyph glyph-name="afii10023" unicode="&#x401;" horiz-adv-x="438" 
d="M418 712h-384l114 -114h156zM418 0l-114 114h-156l-114 -114h384zM404 356l-100 64h-156l-100 -64l100 -49h156zM133 129v163l-113 57v-335zM133 434v149l-113 115v-335zM363 781v138h-113v-138h113zM183 781v138h-113v-138h113z" />
    <glyph glyph-name="afii10071" unicode="&#x451;" horiz-adv-x="438" 
d="M418 712h-384l114 -114h156zM418 0l-114 114h-156l-114 -114h384zM404 356l-100 64h-156l-100 -64l100 -49h156zM133 129v163l-113 57v-335zM133 434v149l-113 115v-335zM363 781v138h-113v-138h113zM183 781v138h-113v-138h113z" />
    <glyph glyph-name="Eth" unicode="&#xd0;" 
d="M133 114v178l-113 57v-349zM404 356l-100 64h-156l-100 -64l100 -49h156zM369 663l-51 49h-284l114 -114h156zM133 434v149l-113 115v-335zM433 363v235l-50 50l-65 -65v-149z" />
    <glyph glyph-name="multiply" unicode="&#xd7;" 
d="M433 0v349l-115 -57v-178zM433 363v349l-115 -114v-164zM133 434v164l-113 114v-349zM404 356l-100 64h-156l-100 -64l100 -49h156z" />
    <glyph glyph-name="Yacute" unicode="&#xdd;" horiz-adv-x="439" 
d="M390 356l-100 64h-156l-100 -64l100 -49h156zM355 49l-65 65h-270l114 -114h170zM355 663l-51 49h-170l-114 -115h270zM419 114v235l-115 -57v-163l65 -65zM419 363v235l-50 50l-65 -65v-149z" />
    <glyph glyph-name="Thorn" unicode="&#xde;" horiz-adv-x="763" 
d="M133 114v178l-113 57v-349zM133 434v149l-113 115v-335zM743 114v235l-115 -57v-163l65 -65zM679 663l-51 49h-185l-49 -49l64 -65h156zM679 49l-65 65h-156l-64 -65l49 -49h185zM443 129v163l-113 57v-235l49 -50zM743 363v235l-50 50l-65 -65v-149zM443 434v149l-64 65
l-49 -50v-235zM304 420h-156l-100 -64l100 -49h156v113z" />
    <glyph glyph-name="eth" unicode="&#xf0;" 
d="M133 114v178l-113 57v-349zM404 356l-100 64h-156l-100 -64l100 -49h156zM369 663l-51 49h-284l114 -114h156zM133 434v149l-113 115v-335zM433 363v235l-50 50l-65 -65v-149z" />
    <glyph glyph-name="yacute" unicode="&#xfd;" horiz-adv-x="439" 
d="M390 356l-100 64h-156l-100 -64l100 -49h156zM355 49l-65 65h-270l114 -114h170zM355 663l-51 49h-170l-114 -115h270zM419 114v235l-115 -57v-163l65 -65zM419 363v235l-50 50l-65 -65v-149z" />
    <glyph glyph-name="thorn" unicode="&#xfe;" horiz-adv-x="763" 
d="M133 114v178l-113 57v-349zM133 434v149l-113 115v-335zM743 114v235l-115 -57v-163l65 -65zM679 663l-51 49h-185l-49 -49l64 -65h156zM679 49l-65 65h-156l-64 -65l49 -49h185zM443 129v163l-113 57v-235l49 -50zM743 363v235l-50 50l-65 -65v-149zM443 434v149l-64 65
l-49 -50v-235zM304 420h-156l-100 -64l100 -49h156v113z" />
  </font>
</defs>
</svg>
